%TF.GenerationSoftware,KiCad,Pcbnew,9.0.2-9.0.2-0~ubuntu22.04.1*%
%TF.CreationDate,2025-06-23T10:09:53-04:00*%
%TF.ProjectId,mm2,6d6d322e-6b69-4636-9164-5f7063625858,rev?*%
%TF.SameCoordinates,Original*%
%TF.FileFunction,Legend,Top*%
%TF.FilePolarity,Positive*%
%FSLAX46Y46*%
G04 Gerber Fmt 4.6, Leading zero omitted, Abs format (unit mm)*
G04 Created by KiCad (PCBNEW 9.0.2-9.0.2-0~ubuntu22.04.1) date 2025-06-23 10:09:53*
%MOMM*%
%LPD*%
G01*
G04 APERTURE LIST*
%ADD10C,0.300000*%
%ADD11C,0.150000*%
%ADD12C,0.100000*%
%ADD13C,0.120000*%
G04 APERTURE END LIST*
D10*
X140300828Y-76088346D02*
X139586542Y-76588346D01*
X140300828Y-76945489D02*
X138800828Y-76945489D01*
X138800828Y-76945489D02*
X138800828Y-76374060D01*
X138800828Y-76374060D02*
X138872257Y-76231203D01*
X138872257Y-76231203D02*
X138943685Y-76159774D01*
X138943685Y-76159774D02*
X139086542Y-76088346D01*
X139086542Y-76088346D02*
X139300828Y-76088346D01*
X139300828Y-76088346D02*
X139443685Y-76159774D01*
X139443685Y-76159774D02*
X139515114Y-76231203D01*
X139515114Y-76231203D02*
X139586542Y-76374060D01*
X139586542Y-76374060D02*
X139586542Y-76945489D01*
X140229400Y-74874060D02*
X140300828Y-75016917D01*
X140300828Y-75016917D02*
X140300828Y-75302632D01*
X140300828Y-75302632D02*
X140229400Y-75445489D01*
X140229400Y-75445489D02*
X140086542Y-75516917D01*
X140086542Y-75516917D02*
X139515114Y-75516917D01*
X139515114Y-75516917D02*
X139372257Y-75445489D01*
X139372257Y-75445489D02*
X139300828Y-75302632D01*
X139300828Y-75302632D02*
X139300828Y-75016917D01*
X139300828Y-75016917D02*
X139372257Y-74874060D01*
X139372257Y-74874060D02*
X139515114Y-74802632D01*
X139515114Y-74802632D02*
X139657971Y-74802632D01*
X139657971Y-74802632D02*
X139800828Y-75516917D01*
X139300828Y-74302632D02*
X140300828Y-73945489D01*
X140300828Y-73945489D02*
X139300828Y-73588346D01*
X139872257Y-71945489D02*
X139872257Y-71231204D01*
X140300828Y-72088346D02*
X138800828Y-71588346D01*
X138800828Y-71588346D02*
X140300828Y-71088346D01*
X122780187Y-68368033D02*
X122780187Y-66971033D01*
X122780187Y-66971033D02*
X123245853Y-67968890D01*
X123245853Y-67968890D02*
X123711520Y-66971033D01*
X123711520Y-66971033D02*
X123711520Y-68368033D01*
X124376758Y-66971033D02*
X124376758Y-68101938D01*
X124376758Y-68101938D02*
X124443281Y-68234986D01*
X124443281Y-68234986D02*
X124509805Y-68301510D01*
X124509805Y-68301510D02*
X124642853Y-68368033D01*
X124642853Y-68368033D02*
X124908948Y-68368033D01*
X124908948Y-68368033D02*
X125041996Y-68301510D01*
X125041996Y-68301510D02*
X125108519Y-68234986D01*
X125108519Y-68234986D02*
X125175043Y-68101938D01*
X125175043Y-68101938D02*
X125175043Y-66971033D01*
X126505520Y-68368033D02*
X125840282Y-68368033D01*
X125840282Y-68368033D02*
X125840282Y-66971033D01*
X126771615Y-66971033D02*
X127569901Y-66971033D01*
X127170758Y-68368033D02*
X127170758Y-66971033D01*
X128035568Y-68368033D02*
X128035568Y-66971033D01*
X128700806Y-68368033D02*
X128700806Y-66971033D01*
X128700806Y-66971033D02*
X129166472Y-67968890D01*
X129166472Y-67968890D02*
X129632139Y-66971033D01*
X129632139Y-66971033D02*
X129632139Y-68368033D01*
X130563472Y-66971033D02*
X130829567Y-66971033D01*
X130829567Y-66971033D02*
X130962615Y-67037557D01*
X130962615Y-67037557D02*
X131095662Y-67170605D01*
X131095662Y-67170605D02*
X131162186Y-67436700D01*
X131162186Y-67436700D02*
X131162186Y-67902367D01*
X131162186Y-67902367D02*
X131095662Y-68168462D01*
X131095662Y-68168462D02*
X130962615Y-68301510D01*
X130962615Y-68301510D02*
X130829567Y-68368033D01*
X130829567Y-68368033D02*
X130563472Y-68368033D01*
X130563472Y-68368033D02*
X130430424Y-68301510D01*
X130430424Y-68301510D02*
X130297377Y-68168462D01*
X130297377Y-68168462D02*
X130230853Y-67902367D01*
X130230853Y-67902367D02*
X130230853Y-67436700D01*
X130230853Y-67436700D02*
X130297377Y-67170605D01*
X130297377Y-67170605D02*
X130430424Y-67037557D01*
X130430424Y-67037557D02*
X130563472Y-66971033D01*
X131760901Y-68368033D02*
X131760901Y-66971033D01*
X131760901Y-66971033D02*
X132093520Y-66971033D01*
X132093520Y-66971033D02*
X132293091Y-67037557D01*
X132293091Y-67037557D02*
X132426139Y-67170605D01*
X132426139Y-67170605D02*
X132492662Y-67303652D01*
X132492662Y-67303652D02*
X132559186Y-67569748D01*
X132559186Y-67569748D02*
X132559186Y-67769319D01*
X132559186Y-67769319D02*
X132492662Y-68035414D01*
X132492662Y-68035414D02*
X132426139Y-68168462D01*
X132426139Y-68168462D02*
X132293091Y-68301510D01*
X132293091Y-68301510D02*
X132093520Y-68368033D01*
X132093520Y-68368033D02*
X131760901Y-68368033D01*
X134222282Y-68368033D02*
X134222282Y-66971033D01*
X134887520Y-68368033D02*
X134887520Y-66971033D01*
X136617139Y-68368033D02*
X136617139Y-66971033D01*
X136617139Y-66971033D02*
X137149329Y-66971033D01*
X137149329Y-66971033D02*
X137282377Y-67037557D01*
X137282377Y-67037557D02*
X137348900Y-67104081D01*
X137348900Y-67104081D02*
X137415424Y-67237129D01*
X137415424Y-67237129D02*
X137415424Y-67436700D01*
X137415424Y-67436700D02*
X137348900Y-67569748D01*
X137348900Y-67569748D02*
X137282377Y-67636271D01*
X137282377Y-67636271D02*
X137149329Y-67702795D01*
X137149329Y-67702795D02*
X136617139Y-67702795D01*
X137814567Y-66971033D02*
X138280234Y-68368033D01*
X138280234Y-68368033D02*
X138745900Y-66971033D01*
X139011996Y-66971033D02*
X139810282Y-66971033D01*
X139411139Y-68368033D02*
X139411139Y-66971033D01*
D11*
X134216876Y-70016019D02*
X134883542Y-71016019D01*
X134883542Y-70016019D02*
X134216876Y-71016019D01*
X135788304Y-71016019D02*
X135216876Y-71016019D01*
X135502590Y-71016019D02*
X135502590Y-70016019D01*
X135502590Y-70016019D02*
X135407352Y-70158876D01*
X135407352Y-70158876D02*
X135312114Y-70254114D01*
X135312114Y-70254114D02*
X135216876Y-70301733D01*
X99894819Y-78761904D02*
X100704342Y-78761904D01*
X100704342Y-78761904D02*
X100799580Y-78714285D01*
X100799580Y-78714285D02*
X100847200Y-78666666D01*
X100847200Y-78666666D02*
X100894819Y-78571428D01*
X100894819Y-78571428D02*
X100894819Y-78380952D01*
X100894819Y-78380952D02*
X100847200Y-78285714D01*
X100847200Y-78285714D02*
X100799580Y-78238095D01*
X100799580Y-78238095D02*
X100704342Y-78190476D01*
X100704342Y-78190476D02*
X99894819Y-78190476D01*
X99990057Y-77761904D02*
X99942438Y-77714285D01*
X99942438Y-77714285D02*
X99894819Y-77619047D01*
X99894819Y-77619047D02*
X99894819Y-77380952D01*
X99894819Y-77380952D02*
X99942438Y-77285714D01*
X99942438Y-77285714D02*
X99990057Y-77238095D01*
X99990057Y-77238095D02*
X100085295Y-77190476D01*
X100085295Y-77190476D02*
X100180533Y-77190476D01*
X100180533Y-77190476D02*
X100323390Y-77238095D01*
X100323390Y-77238095D02*
X100894819Y-77809523D01*
X100894819Y-77809523D02*
X100894819Y-77190476D01*
D12*
X94132495Y-83010600D02*
X94275352Y-83058219D01*
X94275352Y-83058219D02*
X94513447Y-83058219D01*
X94513447Y-83058219D02*
X94608685Y-83010600D01*
X94608685Y-83010600D02*
X94656304Y-82962980D01*
X94656304Y-82962980D02*
X94703923Y-82867742D01*
X94703923Y-82867742D02*
X94703923Y-82772504D01*
X94703923Y-82772504D02*
X94656304Y-82677266D01*
X94656304Y-82677266D02*
X94608685Y-82629647D01*
X94608685Y-82629647D02*
X94513447Y-82582028D01*
X94513447Y-82582028D02*
X94322971Y-82534409D01*
X94322971Y-82534409D02*
X94227733Y-82486790D01*
X94227733Y-82486790D02*
X94180114Y-82439171D01*
X94180114Y-82439171D02*
X94132495Y-82343933D01*
X94132495Y-82343933D02*
X94132495Y-82248695D01*
X94132495Y-82248695D02*
X94180114Y-82153457D01*
X94180114Y-82153457D02*
X94227733Y-82105838D01*
X94227733Y-82105838D02*
X94322971Y-82058219D01*
X94322971Y-82058219D02*
X94561066Y-82058219D01*
X94561066Y-82058219D02*
X94703923Y-82105838D01*
X95656304Y-83058219D02*
X95084876Y-83058219D01*
X95370590Y-83058219D02*
X95370590Y-82058219D01*
X95370590Y-82058219D02*
X95275352Y-82201076D01*
X95275352Y-82201076D02*
X95180114Y-82296314D01*
X95180114Y-82296314D02*
X95084876Y-82343933D01*
D11*
X98888514Y-87830819D02*
X98317086Y-87830819D01*
X98602800Y-87830819D02*
X98602800Y-86830819D01*
X98602800Y-86830819D02*
X98507562Y-86973676D01*
X98507562Y-86973676D02*
X98412324Y-87068914D01*
X98412324Y-87068914D02*
X98317086Y-87116533D01*
X107101019Y-79231904D02*
X107910542Y-79231904D01*
X107910542Y-79231904D02*
X108005780Y-79184285D01*
X108005780Y-79184285D02*
X108053400Y-79136666D01*
X108053400Y-79136666D02*
X108101019Y-79041428D01*
X108101019Y-79041428D02*
X108101019Y-78850952D01*
X108101019Y-78850952D02*
X108053400Y-78755714D01*
X108053400Y-78755714D02*
X108005780Y-78708095D01*
X108005780Y-78708095D02*
X107910542Y-78660476D01*
X107910542Y-78660476D02*
X107101019Y-78660476D01*
X108101019Y-77660476D02*
X108101019Y-78231904D01*
X108101019Y-77946190D02*
X107101019Y-77946190D01*
X107101019Y-77946190D02*
X107243876Y-78041428D01*
X107243876Y-78041428D02*
X107339114Y-78136666D01*
X107339114Y-78136666D02*
X107386733Y-78231904D01*
D13*
%TO.C,X1*%
X132640000Y-72680000D02*
X132640000Y-73320000D01*
X133910000Y-74360000D02*
X133580000Y-74360000D01*
X133920000Y-71640000D02*
X133580000Y-71640000D01*
X134130000Y-74560000D02*
X134820000Y-74560000D01*
X134860000Y-72680000D02*
X134860000Y-73320000D01*
X134130000Y-74560000D02*
G75*
G02*
X133909999Y-74360000I90001J320002D01*
G01*
%TO.C,C4*%
X114490000Y-72390580D02*
X114490000Y-72109420D01*
X115510000Y-72390580D02*
X115510000Y-72109420D01*
%TO.C,U2*%
X101275000Y-75275000D02*
X101535000Y-75275000D01*
X101275000Y-78000000D02*
X101275000Y-75275000D01*
X101275000Y-78000000D02*
X101275000Y-80725000D01*
X101275000Y-80725000D02*
X101535000Y-80725000D01*
X101535000Y-80725000D02*
X101535000Y-82400000D01*
X106725000Y-75275000D02*
X106465000Y-75275000D01*
X106725000Y-78000000D02*
X106725000Y-75275000D01*
X106725000Y-78000000D02*
X106725000Y-80725000D01*
X106725000Y-80725000D02*
X106465000Y-80725000D01*
%TO.C,R15*%
X119762742Y-66477500D02*
X120237258Y-66477500D01*
X119762742Y-67522500D02*
X120237258Y-67522500D01*
D12*
%TO.C,S1*%
X95809000Y-81777800D02*
X99009000Y-81777800D01*
X95809000Y-83677800D02*
X95809000Y-81777800D01*
X96609000Y-82127800D02*
X98149000Y-82127800D01*
X96609000Y-83317800D02*
X98199000Y-83317800D01*
X99009000Y-81777800D02*
X99009000Y-83677800D01*
X99009000Y-83677800D02*
X95809000Y-83677800D01*
D13*
%TO.C,J1*%
X99500000Y-85650000D02*
X141800000Y-85650000D01*
X99500000Y-89850000D02*
X99500000Y-85650000D01*
X103505000Y-85650000D02*
X103505000Y-89850000D01*
X141800000Y-85650000D02*
X141800000Y-89850000D01*
X141800000Y-89850000D02*
X99500000Y-89850000D01*
%TO.C,R7*%
X111762742Y-71977500D02*
X112237258Y-71977500D01*
X111762742Y-73022500D02*
X112237258Y-73022500D01*
%TO.C,U1*%
X109390000Y-74890000D02*
X109865000Y-74890000D01*
X109390000Y-75365000D02*
X109390000Y-74890000D01*
X109390000Y-81635000D02*
X109390000Y-82110000D01*
X109390000Y-82110000D02*
X109865000Y-82110000D01*
X116610000Y-75365000D02*
X116610000Y-74890000D01*
X116610000Y-81635000D02*
X116610000Y-82110000D01*
X116610000Y-82110000D02*
X116135000Y-82110000D01*
%TO.C,C2*%
X103859420Y-71490000D02*
X104140580Y-71490000D01*
X103859420Y-72510000D02*
X104140580Y-72510000D01*
%TO.C,R8*%
X103237258Y-82977500D02*
X102762742Y-82977500D01*
X103237258Y-84022500D02*
X102762742Y-84022500D01*
%TO.C,R10*%
X115762742Y-66477500D02*
X116237258Y-66477500D01*
X115762742Y-67522500D02*
X116237258Y-67522500D01*
%TO.C,R16*%
X135837742Y-76077500D02*
X136312258Y-76077500D01*
X135837742Y-77122500D02*
X136312258Y-77122500D01*
%TO.C,J3*%
X95870000Y-74240000D02*
X97000000Y-74240000D01*
X95870000Y-75000000D02*
X95870000Y-74240000D01*
X95870000Y-75760000D02*
X95870000Y-80775000D01*
X95870000Y-75760000D02*
X96436529Y-75760000D01*
X95870000Y-80775000D02*
X96692470Y-80775000D01*
X97307530Y-80775000D02*
X97962470Y-80775000D01*
X97563471Y-75760000D02*
X97706529Y-75760000D01*
X97760000Y-74305000D02*
X97962470Y-74305000D01*
X97760000Y-74436529D02*
X97760000Y-74305000D01*
X97760000Y-75706529D02*
X97760000Y-75563471D01*
X98577530Y-74305000D02*
X99400000Y-74305000D01*
X98577530Y-80775000D02*
X99400000Y-80775000D01*
X99400000Y-74305000D02*
X99400000Y-80775000D01*
%TO.C,C3*%
X130490000Y-73140580D02*
X130490000Y-72859420D01*
X131510000Y-73140580D02*
X131510000Y-72859420D01*
%TD*%
M02*
