M48
; DRILL file {KiCad 9.0.2-9.0.2-0~ubuntu22.04.1} date 2025-06-23T10:09:56-0400
; FORMAT={-:-/ absolute / inch / decimal}
; #@! TF.CreationDate,2025-06-23T10:09:56-04:00
; #@! TF.GenerationSoftware,Kicad,Pcbnew,9.0.2-9.0.2-0~ubuntu22.04.1
; #@! TF.FileFunction,Plated,1,4,PTH
FMAT,2
INCH
; #@! TA.AperFunction,Plated,PTH,ViaDrill
T1C0.0157
; #@! TA.AperFunction,Plated,PTH,ComponentDrill
T2C0.0236
; #@! TA.AperFunction,Plated,PTH,ComponentDrill
T3C0.0256
; #@! TA.AperFunction,Plated,PTH,ComponentDrill
T4C0.0870
%
G90
G05
T1
X3.9567Y-3.2677
X3.9685Y-3.2205
X4.023Y-2.797
X4.048Y-3.365
X4.092Y-2.793
X4.1102Y-3.0945
X4.1184Y-3.138
X4.142Y-3.321
X4.1691Y-3.265
X4.1753Y-2.997
X4.1772Y-2.874
X4.193Y-2.789
X4.2062Y-3.1582
X4.2189Y-2.9819
X4.237Y-3.291
X4.25Y-2.874
X4.252Y-3.16
X4.275Y-3.251
X4.286Y-3.292
X4.316Y-2.8
X4.357Y-3.127
X4.367Y-3.091
X4.374Y-3.315
X4.3772Y-2.9052
X4.379Y-2.798
X4.417Y-3.17
X4.421Y-3.323
X4.43Y-2.999
X4.48Y-2.802
X4.487Y-3.325
X4.505Y-2.91
X4.537Y-3.1565
X4.555Y-3.329
X4.625Y-2.941
X4.63Y-3.288
X4.667Y-2.559
X4.691Y-2.999
X4.696Y-3.221
X4.719Y-3.107
X4.722Y-3.309
X4.7231Y-2.7559
X4.745Y-3.269
X4.854Y-3.1732
X4.866Y-2.959
X4.877Y-3.01
X4.879Y-2.875
X4.8821Y-2.7559
X4.89Y-3.195
X4.913Y-3.093
X4.941Y-2.564
X4.949Y-3.166
X4.953Y-3.27
X4.955Y-3.065
X4.973Y-3.2244
X4.981Y-2.866
X4.9836Y-2.996
X4.9852Y-2.9521
X5.0Y-2.756
X5.086Y-3.301
X5.098Y-2.882
X5.166Y-2.757
X5.173Y-3.241
X5.179Y-3.146
X5.18Y-3.077
X5.213Y-2.561
X5.25Y-2.773
X5.257Y-2.992
X5.304Y-3.12
X5.31Y-2.553
X5.343Y-2.91
X5.352Y-2.838
X5.434Y-2.757
X5.468Y-3.285
X5.529Y-3.111
X5.529Y-3.162
X5.531Y-3.206
T3
X3.8189Y-2.9528
X3.8189Y-3.0028
X3.8189Y-3.0528
X3.8189Y-3.1028
X3.8189Y-3.1528
X3.8689Y-2.9528
X3.8689Y-3.0028
X3.8689Y-3.0528
X3.8689Y-3.1028
X3.8689Y-3.1528
T4
X4.0Y-3.4547
X4.15Y-3.4547
X4.3Y-3.4547
X4.45Y-3.4547
X4.6Y-3.4547
X4.75Y-3.4547
X4.9Y-3.4547
X5.05Y-3.4547
X5.2Y-3.4547
X5.35Y-3.4547
X5.5Y-3.4547
T2
G00X4.0858Y-2.5394
M15
G01X4.0858Y-2.5906
M16
G05
G00X4.0858Y-2.6959
M15
G01X4.0858Y-2.7352
M16
G05
G00X4.426Y-2.5394
M15
G01X4.426Y-2.5906
M16
G05
G00X4.426Y-2.6959
M15
G01X4.426Y-2.7352
M16
G05
M30
