%TF.GenerationSoftware,KiCad,Pcbnew,9.0.2-9.0.2-0~ubuntu22.04.1*%
%TF.CreationDate,2025-06-23T10:09:52-04:00*%
%TF.ProjectId,mm2,6d6d322e-6b69-4636-9164-5f7063625858,rev?*%
%TF.SameCoordinates,Original*%
%TF.FileFunction,Copper,L3,Inr*%
%TF.FilePolarity,Positive*%
%FSLAX46Y46*%
G04 Gerber Fmt 4.6, Leading zero omitted, Abs format (unit mm)*
G04 Created by KiCad (PCBNEW 9.0.2-9.0.2-0~ubuntu22.04.1) date 2025-06-23 10:09:52*
%MOMM*%
%LPD*%
G01*
G04 APERTURE LIST*
%TA.AperFunction,ComponentPad*%
%ADD10C,3.200000*%
%TD*%
%TA.AperFunction,ComponentPad*%
%ADD11R,1.000000X1.000000*%
%TD*%
%TA.AperFunction,ComponentPad*%
%ADD12O,1.000000X1.000000*%
%TD*%
%TA.AperFunction,ComponentPad*%
%ADD13O,1.300000X2.600000*%
%TD*%
%TA.AperFunction,ComponentPad*%
%ADD14O,1.300000X2.300000*%
%TD*%
%TA.AperFunction,ViaPad*%
%ADD15C,0.800000*%
%TD*%
%TA.AperFunction,Conductor*%
%ADD16C,0.250000*%
%TD*%
G04 APERTURE END LIST*
D10*
%TO.N,Vdd*%
%TO.C,J1*%
X101600000Y-87750000D03*
%TO.N,/71Interface/HALT*%
X105410000Y-87750000D03*
%TO.N,/71Interface/IR14*%
X109220000Y-87750000D03*
%TO.N,/71Interface/Din*%
X113030000Y-87750000D03*
%TO.N,/71Interface/D0*%
X116840000Y-87750000D03*
%TO.N,/71Interface/D1*%
X120650000Y-87750000D03*
%TO.N,/71Interface/D2*%
X124460000Y-87750000D03*
%TO.N,/71Interface/D3*%
X128270000Y-87750000D03*
%TO.N,/71Interface/STRn*%
X132080000Y-87750000D03*
%TO.N,/71Interface/CDn*%
X135890000Y-87750000D03*
%TO.N,GND*%
X139700000Y-87750000D03*
%TD*%
D11*
%TO.N,+3V3*%
%TO.C,J3*%
X97000000Y-75000000D03*
D12*
%TO.N,/Storage/IO3 (HOLD{slash})*%
X98270000Y-75000000D03*
%TO.N,/Storage/CDONE*%
X97000000Y-76270000D03*
%TO.N,/Storage/SPI_CLK*%
X98270000Y-76270000D03*
%TO.N,/Storage/SPI_MOSI*%
X97000000Y-77540000D03*
%TO.N,/Storage/SPI_MISO*%
X98270000Y-77540000D03*
%TO.N,/Storage/CRESET{slash}*%
X97000000Y-78810000D03*
%TO.N,/Storage/SPI_SS*%
X98270000Y-78810000D03*
%TO.N,GND*%
X97000000Y-80080000D03*
%TO.N,/Storage/IO2 (WP{slash})*%
X98270000Y-80080000D03*
%TD*%
D13*
%TO.N,GND*%
%TO.C,J2*%
X103780000Y-65150000D03*
D14*
X103780000Y-68975000D03*
D13*
X112420000Y-65150000D03*
D14*
X112420000Y-68975000D03*
%TD*%
D15*
%TO.N,+3V3*%
X134874000Y-64846200D03*
X117475000Y-74701400D03*
X113969800Y-84455000D03*
X108000800Y-80264000D03*
X138887200Y-83439000D03*
X102184200Y-71043800D03*
X131216400Y-70027800D03*
X119862600Y-78917800D03*
X129489200Y-73202800D03*
%TO.N,GND*%
X112522000Y-76174600D03*
X118541800Y-64998600D03*
X132410200Y-65049400D03*
X111226600Y-71069200D03*
X105894587Y-82931000D03*
X112191800Y-80518000D03*
X103936800Y-70942200D03*
X110667800Y-79425800D03*
X125857000Y-77851000D03*
X133527800Y-75996800D03*
X119966600Y-70000000D03*
X135940800Y-72085200D03*
X127000000Y-70002400D03*
X129184400Y-83845400D03*
X115239800Y-80175000D03*
X125501400Y-65125600D03*
X100500000Y-83000000D03*
X110921800Y-78511400D03*
X134721600Y-79248000D03*
%TO.N,+1V2*%
X112293400Y-84404200D03*
X124005200Y-70000000D03*
X114426181Y-73913181D03*
%TO.N,Net-(U1D-VCCPLL)*%
X111100000Y-84200000D03*
%TO.N,+2V5*%
X138023600Y-70027800D03*
X108585000Y-82575400D03*
%TO.N,Vdd*%
X124790200Y-78562200D03*
X131394200Y-82321400D03*
X123926600Y-73025000D03*
%TO.N,VUSB*%
X106502200Y-70840600D03*
%TO.N,/71Interface/Din*%
X140487400Y-81432400D03*
%TO.N,TO71*%
X126517400Y-72796400D03*
X119151400Y-76174600D03*
%TO.N,Net-(J2-D+-PadA6)*%
X106100000Y-73000000D03*
X100800000Y-81800000D03*
%TO.N,/Storage/CRESET{slash}*%
X111182101Y-73793301D03*
X106838523Y-80219324D03*
%TO.N,/Storage/IO2 (WP{slash})*%
X104608070Y-79704566D03*
%TO.N,/Storage/CDONE*%
X113792000Y-71170800D03*
%TO.N,/Storage/SPI_MOSI*%
X104400000Y-78600000D03*
%TO.N,/Storage/SPI_MISO*%
X106051850Y-76122669D03*
%TO.N,USBN*%
X107619800Y-83591400D03*
X109626400Y-71120000D03*
%TO.N,USBP*%
X105207340Y-84353400D03*
X107950000Y-72999600D03*
%TO.N,FROM71*%
X125806200Y-83058000D03*
X119278400Y-81813400D03*
X124206000Y-81153000D03*
X119938800Y-84048600D03*
%TO.N,CTRL71*%
X131572000Y-78155800D03*
%TO.N,OSC_OUT*%
X133350000Y-70434200D03*
X108864400Y-83616800D03*
%TO.N,/Storage/IO3 (HOLD{slash})*%
X107160103Y-75740707D03*
%TO.N,PULLUP*%
X102819200Y-85471000D03*
%TO.N,OSC_EN*%
X115697000Y-84556600D03*
X135712200Y-73914000D03*
%TO.N,Bio2*%
X126623888Y-74982722D03*
X126314200Y-81899500D03*
%TO.N,Bio3*%
X126583010Y-76097239D03*
X125704600Y-80416400D03*
%TO.N,Bio0*%
X123291600Y-80599500D03*
X123875800Y-76454000D03*
%TO.N,DIN71*%
X140436600Y-80314800D03*
%TO.N,STRN71*%
X131546600Y-79908400D03*
X117602000Y-83515200D03*
%TO.N,Bio1*%
X120523000Y-83032600D03*
X123596400Y-75158600D03*
%TO.N,CDN71*%
X140436600Y-79019400D03*
%TD*%
D16*
%TO.N,+1V2*%
X114426181Y-73913181D02*
X120167400Y-73456800D01*
X114324720Y-79832880D02*
X114426181Y-73913181D01*
X112293400Y-84404200D02*
X114324720Y-79832880D01*
X120167400Y-73456800D02*
X124005200Y-70000000D01*
%TO.N,+2V5*%
X113599720Y-73699880D02*
X118033800Y-69265800D01*
X108585000Y-82575400D02*
X113599720Y-77560680D01*
X118033800Y-69265800D02*
X137261600Y-69265800D01*
X137261600Y-69265800D02*
X138023600Y-70027800D01*
X113599720Y-77560680D02*
X113599720Y-73699880D01*
%TO.N,Vdd*%
X125653800Y-75819000D02*
X125628400Y-75006200D01*
X124790200Y-78562200D02*
X125044200Y-77800200D01*
X128981200Y-82321400D02*
X131394200Y-82321400D01*
X125386000Y-76671000D02*
X125653800Y-75819000D01*
X125628400Y-75006200D02*
X123961305Y-73025000D01*
X123961305Y-73025000D02*
X123926600Y-73025000D01*
X124790200Y-78562200D02*
X128981200Y-82321400D01*
X125044200Y-77800200D02*
X125386000Y-76671000D01*
%TO.N,/71Interface/Din*%
X130378200Y-85140800D02*
X114147600Y-85471000D01*
X114147600Y-85471000D02*
X113030000Y-87750000D01*
X140487400Y-81432400D02*
X134075962Y-81432400D01*
X134075962Y-81432400D02*
X130378200Y-85140800D01*
%TO.N,TO71*%
X119151400Y-76174600D02*
X119751695Y-76174600D01*
X126009400Y-72288400D02*
X126517400Y-72796400D01*
X123637895Y-72288400D02*
X126009400Y-72288400D01*
X119751695Y-76174600D02*
X123637895Y-72288400D01*
%TO.N,/Storage/CRESET{slash}*%
X96175000Y-80421727D02*
X96175000Y-79635000D01*
X96658273Y-80905000D02*
X96175000Y-80421727D01*
X105800000Y-80905000D02*
X96658273Y-80905000D01*
X106838523Y-80219324D02*
X105800000Y-80905000D01*
X96175000Y-79635000D02*
X97000000Y-78810000D01*
X111182101Y-73793301D02*
X106838523Y-80219324D01*
%TO.N,/Storage/IO2 (WP{slash})*%
X98270000Y-80080000D02*
X104608070Y-79704566D01*
%TO.N,/Storage/CDONE*%
X109775097Y-74175000D02*
X96175000Y-74175000D01*
X96620000Y-76270000D02*
X97000000Y-76270000D01*
X113792000Y-71170800D02*
X112779297Y-71170800D01*
X96175000Y-75825000D02*
X96620000Y-76270000D01*
X96175000Y-74175000D02*
X96175000Y-75825000D01*
X112779297Y-71170800D02*
X109775097Y-74175000D01*
%TO.N,FROM71*%
X118973600Y-83134200D02*
X119278400Y-81813400D01*
X121234200Y-83794600D02*
X124206000Y-83286600D01*
X119938800Y-84048600D02*
X118973600Y-83134200D01*
X119938800Y-84048600D02*
X121234200Y-83794600D01*
X124206000Y-83286600D02*
X124206000Y-81153000D01*
X125806200Y-83058000D02*
X124206000Y-81153000D01*
%TO.N,Bio0*%
X122998400Y-77649500D02*
X122998400Y-80306300D01*
X122998400Y-80306300D02*
X123291600Y-80599500D01*
X123875800Y-76454000D02*
X122998400Y-77649500D01*
%TO.N,STRN71*%
X132207000Y-80568800D02*
X131546600Y-79908400D01*
X117602000Y-83515200D02*
X118110000Y-84912200D01*
X132207000Y-82533905D02*
X132207000Y-80568800D01*
X130149600Y-84683600D02*
X132207000Y-82533905D01*
X118110000Y-84912200D02*
X130149600Y-84683600D01*
%TO.N,Bio1*%
X120523000Y-83032600D02*
X120670828Y-78084172D01*
X120670828Y-78084172D02*
X123596400Y-75158600D01*
%TD*%
%TA.AperFunction,Conductor*%
%TO.N,+3V3*%
G36*
X102843380Y-63595185D02*
G01*
X102889135Y-63647989D01*
X102899079Y-63717147D01*
X102876660Y-63772383D01*
X102829094Y-63837851D01*
X102789162Y-63892813D01*
X102706377Y-64055285D01*
X102650025Y-64228716D01*
X102621500Y-64408818D01*
X102621500Y-65891181D01*
X102650025Y-66071283D01*
X102706377Y-66244714D01*
X102789162Y-66407186D01*
X102896346Y-66554712D01*
X103025288Y-66683654D01*
X103172814Y-66790838D01*
X103249575Y-66829950D01*
X103335285Y-66873622D01*
X103335287Y-66873622D01*
X103335290Y-66873624D01*
X103428250Y-66903828D01*
X103508716Y-66929974D01*
X103688819Y-66958500D01*
X103688824Y-66958500D01*
X103871181Y-66958500D01*
X104051283Y-66929974D01*
X104224710Y-66873624D01*
X104387186Y-66790838D01*
X104534712Y-66683654D01*
X104663654Y-66554712D01*
X104770838Y-66407186D01*
X104853624Y-66244710D01*
X104909974Y-66071283D01*
X104915863Y-66034100D01*
X104938500Y-65891181D01*
X104938500Y-64408818D01*
X104909974Y-64228716D01*
X104853622Y-64055285D01*
X104770837Y-63892813D01*
X104683340Y-63772383D01*
X104659861Y-63706580D01*
X104675686Y-63638526D01*
X104725792Y-63589831D01*
X104783659Y-63575500D01*
X111416341Y-63575500D01*
X111483380Y-63595185D01*
X111529135Y-63647989D01*
X111539079Y-63717147D01*
X111516660Y-63772383D01*
X111469094Y-63837851D01*
X111429162Y-63892813D01*
X111346377Y-64055285D01*
X111290025Y-64228716D01*
X111261500Y-64408818D01*
X111261500Y-65891181D01*
X111290025Y-66071283D01*
X111346377Y-66244714D01*
X111429162Y-66407186D01*
X111536346Y-66554712D01*
X111665288Y-66683654D01*
X111812814Y-66790838D01*
X111889575Y-66829950D01*
X111975285Y-66873622D01*
X111975287Y-66873622D01*
X111975290Y-66873624D01*
X112068250Y-66903828D01*
X112148716Y-66929974D01*
X112328819Y-66958500D01*
X112328824Y-66958500D01*
X112511181Y-66958500D01*
X112691283Y-66929974D01*
X112864710Y-66873624D01*
X113027186Y-66790838D01*
X113174712Y-66683654D01*
X113303654Y-66554712D01*
X113410838Y-66407186D01*
X113493624Y-66244710D01*
X113549974Y-66071283D01*
X113555863Y-66034100D01*
X113578500Y-65891181D01*
X113578500Y-64909116D01*
X117633300Y-64909116D01*
X117633300Y-65088083D01*
X117668211Y-65263592D01*
X117668213Y-65263600D01*
X117736696Y-65428932D01*
X117736701Y-65428942D01*
X117836121Y-65577734D01*
X117836124Y-65577738D01*
X117962661Y-65704275D01*
X117962665Y-65704278D01*
X118111457Y-65803698D01*
X118111461Y-65803700D01*
X118111464Y-65803702D01*
X118276800Y-65872187D01*
X118452316Y-65907099D01*
X118452320Y-65907100D01*
X118452321Y-65907100D01*
X118631280Y-65907100D01*
X118631281Y-65907099D01*
X118806800Y-65872187D01*
X118972136Y-65803702D01*
X119120935Y-65704278D01*
X119247478Y-65577735D01*
X119346902Y-65428936D01*
X119415387Y-65263600D01*
X119450300Y-65088079D01*
X119450300Y-65036116D01*
X124592900Y-65036116D01*
X124592900Y-65215083D01*
X124627811Y-65390592D01*
X124627813Y-65390600D01*
X124696296Y-65555932D01*
X124696301Y-65555942D01*
X124795721Y-65704734D01*
X124795724Y-65704738D01*
X124922261Y-65831275D01*
X124922265Y-65831278D01*
X125071057Y-65930698D01*
X125071061Y-65930700D01*
X125071064Y-65930702D01*
X125236400Y-65999187D01*
X125411916Y-66034099D01*
X125411920Y-66034100D01*
X125411921Y-66034100D01*
X125590880Y-66034100D01*
X125590881Y-66034099D01*
X125766400Y-65999187D01*
X125931736Y-65930702D01*
X126080535Y-65831278D01*
X126207078Y-65704735D01*
X126306502Y-65555936D01*
X126374987Y-65390600D01*
X126409900Y-65215079D01*
X126409900Y-65036121D01*
X126398343Y-64978019D01*
X126398343Y-64978016D01*
X126394743Y-64959916D01*
X131501700Y-64959916D01*
X131501700Y-65138883D01*
X131536611Y-65314392D01*
X131536613Y-65314400D01*
X131605096Y-65479732D01*
X131605101Y-65479742D01*
X131704521Y-65628534D01*
X131704524Y-65628538D01*
X131831061Y-65755075D01*
X131831065Y-65755078D01*
X131979857Y-65854498D01*
X131979861Y-65854500D01*
X131979864Y-65854502D01*
X132145200Y-65922987D01*
X132320716Y-65957899D01*
X132320720Y-65957900D01*
X132320721Y-65957900D01*
X132499680Y-65957900D01*
X132499681Y-65957899D01*
X132675200Y-65922987D01*
X132840536Y-65854502D01*
X132989335Y-65755078D01*
X133115878Y-65628535D01*
X133215302Y-65479736D01*
X133283787Y-65314400D01*
X133318700Y-65138879D01*
X133318700Y-64959921D01*
X133283787Y-64784400D01*
X133215302Y-64619064D01*
X133215300Y-64619061D01*
X133215298Y-64619057D01*
X133115878Y-64470265D01*
X133115875Y-64470261D01*
X132989338Y-64343724D01*
X132989334Y-64343721D01*
X132840542Y-64244301D01*
X132840532Y-64244296D01*
X132675200Y-64175813D01*
X132675192Y-64175811D01*
X132499683Y-64140900D01*
X132499679Y-64140900D01*
X132320721Y-64140900D01*
X132320716Y-64140900D01*
X132145207Y-64175811D01*
X132145199Y-64175813D01*
X131979867Y-64244296D01*
X131979857Y-64244301D01*
X131831065Y-64343721D01*
X131831061Y-64343724D01*
X131704524Y-64470261D01*
X131704521Y-64470265D01*
X131605101Y-64619057D01*
X131605096Y-64619067D01*
X131536613Y-64784399D01*
X131536611Y-64784407D01*
X131501700Y-64959916D01*
X126394743Y-64959916D01*
X126374988Y-64860607D01*
X126374987Y-64860600D01*
X126306502Y-64695264D01*
X126306500Y-64695261D01*
X126306498Y-64695257D01*
X126207078Y-64546465D01*
X126207075Y-64546461D01*
X126080538Y-64419924D01*
X126080534Y-64419921D01*
X125931742Y-64320501D01*
X125931732Y-64320496D01*
X125766400Y-64252013D01*
X125766392Y-64252011D01*
X125590883Y-64217100D01*
X125590879Y-64217100D01*
X125411921Y-64217100D01*
X125411916Y-64217100D01*
X125236407Y-64252011D01*
X125236399Y-64252013D01*
X125071067Y-64320496D01*
X125071057Y-64320501D01*
X124922265Y-64419921D01*
X124922261Y-64419924D01*
X124795724Y-64546461D01*
X124795721Y-64546465D01*
X124696301Y-64695257D01*
X124696296Y-64695267D01*
X124627813Y-64860599D01*
X124627811Y-64860607D01*
X124592900Y-65036116D01*
X119450300Y-65036116D01*
X119450300Y-64909121D01*
X119415387Y-64733600D01*
X119346902Y-64568264D01*
X119346900Y-64568261D01*
X119346898Y-64568257D01*
X119247478Y-64419465D01*
X119247475Y-64419461D01*
X119120938Y-64292924D01*
X119120934Y-64292921D01*
X118972142Y-64193501D01*
X118972132Y-64193496D01*
X118806800Y-64125013D01*
X118806792Y-64125011D01*
X118631283Y-64090100D01*
X118631279Y-64090100D01*
X118452321Y-64090100D01*
X118452316Y-64090100D01*
X118276807Y-64125011D01*
X118276799Y-64125013D01*
X118111467Y-64193496D01*
X118111457Y-64193501D01*
X117962665Y-64292921D01*
X117962661Y-64292924D01*
X117836124Y-64419461D01*
X117836121Y-64419465D01*
X117736701Y-64568257D01*
X117736696Y-64568267D01*
X117668213Y-64733599D01*
X117668211Y-64733607D01*
X117633300Y-64909116D01*
X113578500Y-64909116D01*
X113578500Y-64408818D01*
X113549974Y-64228716D01*
X113493622Y-64055285D01*
X113410837Y-63892813D01*
X113323340Y-63772383D01*
X113299861Y-63706580D01*
X113315686Y-63638526D01*
X113365792Y-63589831D01*
X113423659Y-63575500D01*
X141786500Y-63575500D01*
X141853539Y-63595185D01*
X141899294Y-63647989D01*
X141910500Y-63699500D01*
X141910500Y-86953452D01*
X141890815Y-87020491D01*
X141838011Y-87066246D01*
X141768853Y-87076190D01*
X141705297Y-87047165D01*
X141671939Y-87000905D01*
X141605000Y-86839300D01*
X141595114Y-86815433D01*
X141456915Y-86576067D01*
X141456910Y-86576061D01*
X141456908Y-86576057D01*
X141288657Y-86356787D01*
X141288651Y-86356780D01*
X141093219Y-86161348D01*
X141093212Y-86161342D01*
X140873942Y-85993091D01*
X140873936Y-85993087D01*
X140873933Y-85993085D01*
X140634567Y-85854886D01*
X140634557Y-85854881D01*
X140379216Y-85749116D01*
X140372692Y-85747368D01*
X140112231Y-85677577D01*
X140112230Y-85677576D01*
X140112227Y-85677576D01*
X139838208Y-85641501D01*
X139838203Y-85641500D01*
X139838198Y-85641500D01*
X139561802Y-85641500D01*
X139561796Y-85641500D01*
X139561791Y-85641501D01*
X139287772Y-85677576D01*
X139020783Y-85749116D01*
X138765442Y-85854881D01*
X138765432Y-85854886D01*
X138526067Y-85993085D01*
X138526057Y-85993091D01*
X138306787Y-86161342D01*
X138306780Y-86161348D01*
X138111348Y-86356780D01*
X138111342Y-86356787D01*
X137943091Y-86576057D01*
X137943085Y-86576067D01*
X137902387Y-86646558D01*
X137851819Y-86694773D01*
X137783212Y-86707995D01*
X137718348Y-86682027D01*
X137687613Y-86646558D01*
X137646915Y-86576067D01*
X137646910Y-86576061D01*
X137646908Y-86576057D01*
X137478657Y-86356787D01*
X137478651Y-86356780D01*
X137283219Y-86161348D01*
X137283212Y-86161342D01*
X137063942Y-85993091D01*
X137063936Y-85993087D01*
X137063933Y-85993085D01*
X136824567Y-85854886D01*
X136824557Y-85854881D01*
X136569216Y-85749116D01*
X136562692Y-85747368D01*
X136302231Y-85677577D01*
X136302230Y-85677576D01*
X136302227Y-85677576D01*
X136028208Y-85641501D01*
X136028203Y-85641500D01*
X136028198Y-85641500D01*
X135751802Y-85641500D01*
X135751796Y-85641500D01*
X135751791Y-85641501D01*
X135477772Y-85677576D01*
X135210783Y-85749116D01*
X134955442Y-85854881D01*
X134955432Y-85854886D01*
X134716067Y-85993085D01*
X134716057Y-85993091D01*
X134496787Y-86161342D01*
X134496780Y-86161348D01*
X134301348Y-86356780D01*
X134301342Y-86356787D01*
X134133091Y-86576057D01*
X134133085Y-86576067D01*
X134092387Y-86646558D01*
X134041819Y-86694773D01*
X133973212Y-86707995D01*
X133908348Y-86682027D01*
X133877613Y-86646558D01*
X133836915Y-86576067D01*
X133836910Y-86576061D01*
X133836908Y-86576057D01*
X133668657Y-86356787D01*
X133668651Y-86356780D01*
X133473219Y-86161348D01*
X133473212Y-86161342D01*
X133253942Y-85993091D01*
X133253936Y-85993087D01*
X133253933Y-85993085D01*
X133014567Y-85854886D01*
X133014557Y-85854881D01*
X132759216Y-85749116D01*
X132752692Y-85747368D01*
X132492231Y-85677577D01*
X132492230Y-85677576D01*
X132492227Y-85677576D01*
X132218208Y-85641501D01*
X132218203Y-85641500D01*
X132218198Y-85641500D01*
X131941802Y-85641500D01*
X131941796Y-85641500D01*
X131941791Y-85641501D01*
X131667772Y-85677576D01*
X131400783Y-85749116D01*
X131145442Y-85854881D01*
X131145432Y-85854886D01*
X130906067Y-85993085D01*
X130906057Y-85993091D01*
X130686787Y-86161342D01*
X130686780Y-86161348D01*
X130491348Y-86356780D01*
X130491342Y-86356787D01*
X130323091Y-86576057D01*
X130323085Y-86576067D01*
X130282387Y-86646558D01*
X130231819Y-86694773D01*
X130163212Y-86707995D01*
X130098348Y-86682027D01*
X130067613Y-86646558D01*
X130026915Y-86576067D01*
X130026910Y-86576061D01*
X130026908Y-86576057D01*
X129858657Y-86356787D01*
X129858651Y-86356780D01*
X129663219Y-86161348D01*
X129663212Y-86161342D01*
X129470871Y-86013754D01*
X129429668Y-85957326D01*
X129425513Y-85887580D01*
X129459725Y-85826660D01*
X129521442Y-85793907D01*
X129543824Y-85791405D01*
X130385097Y-85774290D01*
X130441504Y-85774210D01*
X130447423Y-85773022D01*
X130453141Y-85772906D01*
X130453466Y-85772900D01*
X130507419Y-85761021D01*
X130509605Y-85760561D01*
X130563859Y-85749689D01*
X130563861Y-85749688D01*
X130569440Y-85747367D01*
X130575337Y-85746070D01*
X130626967Y-85723442D01*
X130659639Y-85709854D01*
X130679072Y-85701773D01*
X130679073Y-85701772D01*
X130679081Y-85701769D01*
X130684104Y-85698402D01*
X130689631Y-85695980D01*
X130735846Y-85663721D01*
X130782739Y-85632291D01*
X130787006Y-85628011D01*
X130791958Y-85624555D01*
X130831013Y-85583877D01*
X133549384Y-82857687D01*
X134302560Y-82102345D01*
X134363835Y-82068772D01*
X134390367Y-82065900D01*
X139784725Y-82065900D01*
X139851764Y-82085585D01*
X139872407Y-82102220D01*
X139908261Y-82138075D01*
X139908265Y-82138078D01*
X140057057Y-82237498D01*
X140057061Y-82237500D01*
X140057064Y-82237502D01*
X140222400Y-82305987D01*
X140397916Y-82340899D01*
X140397920Y-82340900D01*
X140397921Y-82340900D01*
X140576880Y-82340900D01*
X140576881Y-82340899D01*
X140752400Y-82305987D01*
X140917736Y-82237502D01*
X141066535Y-82138078D01*
X141193078Y-82011535D01*
X141292502Y-81862736D01*
X141360987Y-81697400D01*
X141395900Y-81521879D01*
X141395900Y-81342921D01*
X141360987Y-81167400D01*
X141292502Y-81002064D01*
X141292500Y-81002061D01*
X141292498Y-81002057D01*
X141227296Y-80904476D01*
X141206418Y-80837799D01*
X141224902Y-80770418D01*
X141227267Y-80766738D01*
X141241702Y-80745136D01*
X141310187Y-80579800D01*
X141345100Y-80404279D01*
X141345100Y-80225321D01*
X141310187Y-80049800D01*
X141241702Y-79884464D01*
X141241700Y-79884461D01*
X141241698Y-79884457D01*
X141142496Y-79735991D01*
X141121618Y-79669313D01*
X141140103Y-79601933D01*
X141142496Y-79598209D01*
X141241698Y-79449742D01*
X141241698Y-79449741D01*
X141241702Y-79449736D01*
X141310187Y-79284400D01*
X141345100Y-79108879D01*
X141345100Y-78929921D01*
X141310187Y-78754400D01*
X141241702Y-78589064D01*
X141241700Y-78589061D01*
X141241698Y-78589057D01*
X141142278Y-78440265D01*
X141142275Y-78440261D01*
X141015738Y-78313724D01*
X141015734Y-78313721D01*
X140866942Y-78214301D01*
X140866932Y-78214296D01*
X140701600Y-78145813D01*
X140701592Y-78145811D01*
X140526083Y-78110900D01*
X140526079Y-78110900D01*
X140347121Y-78110900D01*
X140347116Y-78110900D01*
X140171607Y-78145811D01*
X140171599Y-78145813D01*
X140006267Y-78214296D01*
X140006257Y-78214301D01*
X139857465Y-78313721D01*
X139857461Y-78313724D01*
X139730924Y-78440261D01*
X139730921Y-78440265D01*
X139631501Y-78589057D01*
X139631496Y-78589067D01*
X139563013Y-78754399D01*
X139563011Y-78754407D01*
X139528100Y-78929916D01*
X139528100Y-79108883D01*
X139563011Y-79284392D01*
X139563013Y-79284400D01*
X139631496Y-79449732D01*
X139631504Y-79449747D01*
X139730703Y-79598210D01*
X139751581Y-79664887D01*
X139733096Y-79732267D01*
X139730703Y-79735990D01*
X139631504Y-79884452D01*
X139631496Y-79884467D01*
X139563013Y-80049799D01*
X139563011Y-80049807D01*
X139528100Y-80225316D01*
X139528100Y-80404283D01*
X139563011Y-80579792D01*
X139563014Y-80579804D01*
X139582749Y-80627448D01*
X139590218Y-80696917D01*
X139558943Y-80759396D01*
X139498854Y-80795048D01*
X139468188Y-80798900D01*
X134137897Y-80798900D01*
X134137446Y-80798811D01*
X134075401Y-80798900D01*
X134013553Y-80798900D01*
X134013323Y-80798923D01*
X134013086Y-80798946D01*
X134012680Y-80798985D01*
X133951952Y-80811154D01*
X133951953Y-80811155D01*
X133951817Y-80811182D01*
X133891177Y-80823245D01*
X133890752Y-80823420D01*
X133890303Y-80823511D01*
X133890255Y-80823530D01*
X133890254Y-80823531D01*
X133855947Y-80837799D01*
X133833025Y-80847332D01*
X133775887Y-80871000D01*
X133775507Y-80871253D01*
X133775081Y-80871431D01*
X133775048Y-80871453D01*
X133775041Y-80871456D01*
X133723584Y-80905946D01*
X133723423Y-80906055D01*
X133672129Y-80940329D01*
X133671805Y-80940652D01*
X133671423Y-80940909D01*
X133671395Y-80940936D01*
X133671392Y-80940939D01*
X133638455Y-80973970D01*
X133627623Y-80984834D01*
X133583891Y-81028567D01*
X133583639Y-81028942D01*
X133579081Y-81033514D01*
X133579081Y-81033515D01*
X133052307Y-81561805D01*
X132991032Y-81595378D01*
X132921333Y-81590494D01*
X132865340Y-81548703D01*
X132840829Y-81483274D01*
X132840500Y-81474250D01*
X132840500Y-80506405D01*
X132840499Y-80506401D01*
X132831452Y-80460919D01*
X132816155Y-80384015D01*
X132809808Y-80368692D01*
X132800665Y-80346618D01*
X132768404Y-80268732D01*
X132768403Y-80268731D01*
X132768401Y-80268725D01*
X132756544Y-80250980D01*
X132699072Y-80164966D01*
X132491419Y-79957313D01*
X132457934Y-79895990D01*
X132455100Y-79869632D01*
X132455100Y-79818920D01*
X132455099Y-79818916D01*
X132450222Y-79794398D01*
X132420187Y-79643400D01*
X132351702Y-79478064D01*
X132351700Y-79478061D01*
X132351698Y-79478057D01*
X132252278Y-79329265D01*
X132252275Y-79329261D01*
X132168691Y-79245677D01*
X132168686Y-79245673D01*
X132125735Y-79202722D01*
X132059576Y-79158516D01*
X133813100Y-79158516D01*
X133813100Y-79337483D01*
X133848011Y-79512992D01*
X133848013Y-79513000D01*
X133916496Y-79678332D01*
X133916501Y-79678342D01*
X134015921Y-79827134D01*
X134015924Y-79827138D01*
X134142461Y-79953675D01*
X134142465Y-79953678D01*
X134291257Y-80053098D01*
X134291261Y-80053100D01*
X134291264Y-80053102D01*
X134456600Y-80121587D01*
X134606517Y-80151407D01*
X134632116Y-80156499D01*
X134632120Y-80156500D01*
X134632121Y-80156500D01*
X134811080Y-80156500D01*
X134811081Y-80156499D01*
X134986600Y-80121587D01*
X135151936Y-80053102D01*
X135300735Y-79953678D01*
X135427278Y-79827135D01*
X135525368Y-79680332D01*
X135526698Y-79678342D01*
X135526698Y-79678341D01*
X135526702Y-79678336D01*
X135595187Y-79513000D01*
X135630100Y-79337479D01*
X135630100Y-79158521D01*
X135595187Y-78983000D01*
X135526702Y-78817664D01*
X135526700Y-78817661D01*
X135526698Y-78817657D01*
X135427278Y-78668865D01*
X135427275Y-78668861D01*
X135300738Y-78542324D01*
X135300734Y-78542321D01*
X135151942Y-78442901D01*
X135151932Y-78442896D01*
X134986600Y-78374413D01*
X134986592Y-78374411D01*
X134811083Y-78339500D01*
X134811079Y-78339500D01*
X134632121Y-78339500D01*
X134632116Y-78339500D01*
X134456607Y-78374411D01*
X134456599Y-78374413D01*
X134291267Y-78442896D01*
X134291257Y-78442901D01*
X134142465Y-78542321D01*
X134142461Y-78542324D01*
X134015924Y-78668861D01*
X134015921Y-78668865D01*
X133916501Y-78817657D01*
X133916496Y-78817667D01*
X133848013Y-78982999D01*
X133848011Y-78983007D01*
X133813100Y-79158516D01*
X132059576Y-79158516D01*
X132033809Y-79141299D01*
X132030387Y-79138651D01*
X132012330Y-79113708D01*
X131992579Y-79090075D01*
X131992024Y-79085659D01*
X131989415Y-79082055D01*
X131987709Y-79051304D01*
X131983872Y-79020750D01*
X131985792Y-79016736D01*
X131985546Y-79012293D01*
X132000736Y-78985501D01*
X132014027Y-78957722D01*
X132018862Y-78953532D01*
X132020007Y-78951513D01*
X132023018Y-78949930D01*
X132037379Y-78937486D01*
X132151135Y-78861478D01*
X132277678Y-78734935D01*
X132377102Y-78586136D01*
X132445587Y-78420800D01*
X132480500Y-78245279D01*
X132480500Y-78066321D01*
X132445587Y-77890800D01*
X132377102Y-77725464D01*
X132377100Y-77725461D01*
X132377098Y-77725457D01*
X132277678Y-77576665D01*
X132277675Y-77576661D01*
X132151138Y-77450124D01*
X132151134Y-77450121D01*
X132002342Y-77350701D01*
X132002332Y-77350696D01*
X131837000Y-77282213D01*
X131836992Y-77282211D01*
X131661483Y-77247300D01*
X131661479Y-77247300D01*
X131482521Y-77247300D01*
X131482516Y-77247300D01*
X131307007Y-77282211D01*
X131306999Y-77282213D01*
X131141667Y-77350696D01*
X131141657Y-77350701D01*
X130992865Y-77450121D01*
X130992861Y-77450124D01*
X130866324Y-77576661D01*
X130866321Y-77576665D01*
X130766901Y-77725457D01*
X130766896Y-77725467D01*
X130698413Y-77890799D01*
X130698411Y-77890807D01*
X130663500Y-78066316D01*
X130663500Y-78245283D01*
X130698411Y-78420792D01*
X130698413Y-78420800D01*
X130766896Y-78586132D01*
X130766901Y-78586142D01*
X130866321Y-78734934D01*
X130866324Y-78734938D01*
X130992861Y-78861475D01*
X130992865Y-78861478D01*
X131081215Y-78920512D01*
X131126020Y-78974124D01*
X131134727Y-79043449D01*
X131104573Y-79106477D01*
X131081215Y-79126716D01*
X130967465Y-79202721D01*
X130967461Y-79202724D01*
X130840924Y-79329261D01*
X130840921Y-79329265D01*
X130741501Y-79478057D01*
X130741496Y-79478067D01*
X130673013Y-79643399D01*
X130673011Y-79643407D01*
X130638100Y-79818916D01*
X130638100Y-79997883D01*
X130673011Y-80173392D01*
X130673013Y-80173400D01*
X130741496Y-80338732D01*
X130741501Y-80338742D01*
X130840921Y-80487534D01*
X130840924Y-80487538D01*
X130967461Y-80614075D01*
X130967465Y-80614078D01*
X131116257Y-80713498D01*
X131116261Y-80713500D01*
X131116264Y-80713502D01*
X131281600Y-80781987D01*
X131347263Y-80795048D01*
X131457119Y-80816900D01*
X131461648Y-80817346D01*
X131526437Y-80843503D01*
X131566798Y-80900536D01*
X131573500Y-80940749D01*
X131573500Y-81288900D01*
X131553815Y-81355939D01*
X131501011Y-81401694D01*
X131449500Y-81412900D01*
X131304716Y-81412900D01*
X131129207Y-81447811D01*
X131129199Y-81447813D01*
X130963867Y-81516296D01*
X130963857Y-81516301D01*
X130815065Y-81615721D01*
X130815061Y-81615724D01*
X130779207Y-81651580D01*
X130717885Y-81685066D01*
X130691525Y-81687900D01*
X129271151Y-81687900D01*
X129204112Y-81668215D01*
X129188354Y-81656207D01*
X126799690Y-79513648D01*
X126130414Y-78913328D01*
X126093654Y-78853913D01*
X126094851Y-78784053D01*
X126133627Y-78725931D01*
X126165757Y-78706461D01*
X126287336Y-78656102D01*
X126436135Y-78556678D01*
X126562678Y-78430135D01*
X126662102Y-78281336D01*
X126730587Y-78116000D01*
X126765500Y-77940479D01*
X126765500Y-77761521D01*
X126730587Y-77586000D01*
X126662102Y-77420664D01*
X126662100Y-77420661D01*
X126662098Y-77420657D01*
X126562678Y-77271865D01*
X126562675Y-77271861D01*
X126508234Y-77217420D01*
X126474749Y-77156097D01*
X126479733Y-77086405D01*
X126521605Y-77030472D01*
X126587069Y-77006055D01*
X126595915Y-77005739D01*
X126672490Y-77005739D01*
X126672491Y-77005738D01*
X126848010Y-76970826D01*
X127013346Y-76902341D01*
X127162145Y-76802917D01*
X127288688Y-76676374D01*
X127388112Y-76527575D01*
X127456597Y-76362239D01*
X127491510Y-76186718D01*
X127491510Y-76007760D01*
X127471986Y-75909607D01*
X127471530Y-75907316D01*
X132619300Y-75907316D01*
X132619300Y-76086283D01*
X132654211Y-76261792D01*
X132654213Y-76261800D01*
X132722696Y-76427132D01*
X132722701Y-76427142D01*
X132822121Y-76575934D01*
X132822124Y-76575938D01*
X132948661Y-76702475D01*
X132948665Y-76702478D01*
X133097457Y-76801898D01*
X133097461Y-76801900D01*
X133097464Y-76801902D01*
X133262800Y-76870387D01*
X133423425Y-76902337D01*
X133438316Y-76905299D01*
X133438320Y-76905300D01*
X133438321Y-76905300D01*
X133617280Y-76905300D01*
X133617281Y-76905299D01*
X133792800Y-76870387D01*
X133958136Y-76801902D01*
X134106935Y-76702478D01*
X134233478Y-76575935D01*
X134332902Y-76427136D01*
X134401387Y-76261800D01*
X134436300Y-76086279D01*
X134436300Y-75907321D01*
X134401387Y-75731800D01*
X134332902Y-75566464D01*
X134332900Y-75566461D01*
X134332898Y-75566457D01*
X134233478Y-75417665D01*
X134233475Y-75417661D01*
X134106938Y-75291124D01*
X134106934Y-75291121D01*
X133958142Y-75191701D01*
X133958132Y-75191696D01*
X133792800Y-75123213D01*
X133792792Y-75123211D01*
X133617283Y-75088300D01*
X133617279Y-75088300D01*
X133438321Y-75088300D01*
X133438316Y-75088300D01*
X133262807Y-75123211D01*
X133262799Y-75123213D01*
X133097467Y-75191696D01*
X133097457Y-75191701D01*
X132948665Y-75291121D01*
X132948661Y-75291124D01*
X132822124Y-75417661D01*
X132822121Y-75417665D01*
X132722701Y-75566457D01*
X132722696Y-75566467D01*
X132654213Y-75731799D01*
X132654211Y-75731807D01*
X132619300Y-75907316D01*
X127471530Y-75907316D01*
X127465075Y-75874861D01*
X127456597Y-75832239D01*
X127388112Y-75666903D01*
X127388109Y-75666898D01*
X127388105Y-75666891D01*
X127369776Y-75639459D01*
X127348898Y-75572782D01*
X127367383Y-75505402D01*
X127369776Y-75501678D01*
X127385798Y-75477699D01*
X127428990Y-75413058D01*
X127497475Y-75247722D01*
X127532388Y-75072201D01*
X127532388Y-74893243D01*
X127497475Y-74717722D01*
X127428990Y-74552386D01*
X127428988Y-74552383D01*
X127428986Y-74552379D01*
X127329566Y-74403587D01*
X127329563Y-74403583D01*
X127203026Y-74277046D01*
X127203022Y-74277043D01*
X127054230Y-74177623D01*
X127054220Y-74177618D01*
X126888888Y-74109135D01*
X126888880Y-74109133D01*
X126713371Y-74074222D01*
X126713367Y-74074222D01*
X126534409Y-74074222D01*
X126534404Y-74074222D01*
X126358895Y-74109133D01*
X126358887Y-74109135D01*
X126193555Y-74177618D01*
X126193545Y-74177623D01*
X126044756Y-74277041D01*
X126044749Y-74277047D01*
X126030622Y-74291173D01*
X125969298Y-74324655D01*
X125899606Y-74319666D01*
X125848067Y-74283324D01*
X125842785Y-74277047D01*
X125462000Y-73824516D01*
X134803700Y-73824516D01*
X134803700Y-74003483D01*
X134838611Y-74178992D01*
X134838613Y-74179000D01*
X134907096Y-74344332D01*
X134907101Y-74344342D01*
X135006521Y-74493134D01*
X135006524Y-74493138D01*
X135133061Y-74619675D01*
X135133065Y-74619678D01*
X135281857Y-74719098D01*
X135281861Y-74719100D01*
X135281864Y-74719102D01*
X135447200Y-74787587D01*
X135622716Y-74822499D01*
X135622720Y-74822500D01*
X135622721Y-74822500D01*
X135801680Y-74822500D01*
X135801681Y-74822499D01*
X135977200Y-74787587D01*
X136142536Y-74719102D01*
X136291335Y-74619678D01*
X136417878Y-74493135D01*
X136517302Y-74344336D01*
X136585787Y-74179000D01*
X136620700Y-74003479D01*
X136620700Y-73824521D01*
X136585787Y-73649000D01*
X136517302Y-73483664D01*
X136517300Y-73483661D01*
X136517298Y-73483657D01*
X136417878Y-73334865D01*
X136417875Y-73334861D01*
X136291338Y-73208324D01*
X136291334Y-73208321D01*
X136220952Y-73161293D01*
X136176147Y-73107681D01*
X136167440Y-73038356D01*
X136197595Y-72975328D01*
X136242389Y-72943630D01*
X136344304Y-72901416D01*
X136371129Y-72890305D01*
X136371129Y-72890304D01*
X136371136Y-72890302D01*
X136519935Y-72790878D01*
X136646478Y-72664335D01*
X136745902Y-72515536D01*
X136814387Y-72350200D01*
X136849300Y-72174679D01*
X136849300Y-71995721D01*
X136814387Y-71820200D01*
X136745902Y-71654864D01*
X136745900Y-71654861D01*
X136745898Y-71654857D01*
X136646478Y-71506065D01*
X136646475Y-71506061D01*
X136519938Y-71379524D01*
X136519934Y-71379521D01*
X136371142Y-71280101D01*
X136371132Y-71280096D01*
X136205800Y-71211613D01*
X136205792Y-71211611D01*
X136030283Y-71176700D01*
X136030279Y-71176700D01*
X135851321Y-71176700D01*
X135851316Y-71176700D01*
X135675807Y-71211611D01*
X135675799Y-71211613D01*
X135510467Y-71280096D01*
X135510457Y-71280101D01*
X135361665Y-71379521D01*
X135361661Y-71379524D01*
X135235124Y-71506061D01*
X135235121Y-71506065D01*
X135135701Y-71654857D01*
X135135696Y-71654867D01*
X135067213Y-71820199D01*
X135067211Y-71820207D01*
X135032300Y-71995716D01*
X135032300Y-72174683D01*
X135067211Y-72350192D01*
X135067213Y-72350200D01*
X135135696Y-72515532D01*
X135135701Y-72515542D01*
X135235121Y-72664334D01*
X135235124Y-72664338D01*
X135361664Y-72790878D01*
X135432047Y-72837906D01*
X135476852Y-72891518D01*
X135485559Y-72960843D01*
X135455405Y-73023870D01*
X135410609Y-73055569D01*
X135281867Y-73108896D01*
X135281857Y-73108901D01*
X135133065Y-73208321D01*
X135133061Y-73208324D01*
X135006524Y-73334861D01*
X135006521Y-73334865D01*
X134907101Y-73483657D01*
X134907096Y-73483667D01*
X134838613Y-73648999D01*
X134838611Y-73649007D01*
X134803700Y-73824516D01*
X125462000Y-73824516D01*
X124874006Y-73125736D01*
X124845905Y-73061767D01*
X124856850Y-72992760D01*
X124903364Y-72940624D01*
X124968886Y-72921900D01*
X125514301Y-72921900D01*
X125581340Y-72941585D01*
X125627095Y-72994389D01*
X125635917Y-73021703D01*
X125642653Y-73055569D01*
X125643813Y-73061400D01*
X125712296Y-73226732D01*
X125712301Y-73226742D01*
X125811721Y-73375534D01*
X125811724Y-73375538D01*
X125938261Y-73502075D01*
X125938265Y-73502078D01*
X126087057Y-73601498D01*
X126087061Y-73601500D01*
X126087064Y-73601502D01*
X126252400Y-73669987D01*
X126427916Y-73704899D01*
X126427920Y-73704900D01*
X126427921Y-73704900D01*
X126606880Y-73704900D01*
X126606881Y-73704899D01*
X126618620Y-73702564D01*
X126647543Y-73696812D01*
X126709564Y-73684474D01*
X126782400Y-73669987D01*
X126947736Y-73601502D01*
X127096535Y-73502078D01*
X127223078Y-73375535D01*
X127322502Y-73226736D01*
X127390987Y-73061400D01*
X127425900Y-72885879D01*
X127425900Y-72706921D01*
X127390987Y-72531400D01*
X127322502Y-72366064D01*
X127322500Y-72366061D01*
X127322498Y-72366057D01*
X127223078Y-72217265D01*
X127223075Y-72217261D01*
X127096538Y-72090724D01*
X127096534Y-72090721D01*
X126947742Y-71991301D01*
X126947732Y-71991296D01*
X126782400Y-71922813D01*
X126782392Y-71922811D01*
X126606883Y-71887900D01*
X126606879Y-71887900D01*
X126556166Y-71887900D01*
X126489127Y-71868215D01*
X126468489Y-71851585D01*
X126413233Y-71796329D01*
X126413232Y-71796328D01*
X126413231Y-71796327D01*
X126309481Y-71727003D01*
X126309472Y-71726998D01*
X126194185Y-71679245D01*
X126194177Y-71679243D01*
X126071798Y-71654900D01*
X126071794Y-71654900D01*
X123700289Y-71654900D01*
X123575501Y-71654900D01*
X123575496Y-71654900D01*
X123453117Y-71679242D01*
X123453110Y-71679245D01*
X123442448Y-71683661D01*
X123372979Y-71691126D01*
X123310501Y-71659847D01*
X123274852Y-71599756D01*
X123277350Y-71529931D01*
X123312011Y-71476965D01*
X123907755Y-70940365D01*
X123970741Y-70910124D01*
X123990743Y-70908500D01*
X124094680Y-70908500D01*
X124094681Y-70908499D01*
X124270200Y-70873587D01*
X124435536Y-70805102D01*
X124584335Y-70705678D01*
X124710878Y-70579135D01*
X124810302Y-70430336D01*
X124878787Y-70265000D01*
X124913700Y-70089479D01*
X124913700Y-70023300D01*
X124933385Y-69956261D01*
X124986189Y-69910506D01*
X125037700Y-69899300D01*
X125967500Y-69899300D01*
X126034539Y-69918985D01*
X126080294Y-69971789D01*
X126091500Y-70023300D01*
X126091500Y-70091883D01*
X126126411Y-70267392D01*
X126126413Y-70267400D01*
X126194896Y-70432732D01*
X126194901Y-70432742D01*
X126294321Y-70581534D01*
X126294324Y-70581538D01*
X126420861Y-70708075D01*
X126420865Y-70708078D01*
X126569657Y-70807498D01*
X126569661Y-70807500D01*
X126569664Y-70807502D01*
X126735000Y-70875987D01*
X126884917Y-70905807D01*
X126910516Y-70910899D01*
X126910520Y-70910900D01*
X126910521Y-70910900D01*
X127089480Y-70910900D01*
X127089481Y-70910899D01*
X127265000Y-70875987D01*
X127430336Y-70807502D01*
X127579135Y-70708078D01*
X127705678Y-70581535D01*
X127805102Y-70432736D01*
X127873587Y-70267400D01*
X127908500Y-70091879D01*
X127908500Y-70023300D01*
X127928185Y-69956261D01*
X127980989Y-69910506D01*
X128032500Y-69899300D01*
X132402630Y-69899300D01*
X132469669Y-69918985D01*
X132515424Y-69971789D01*
X132525368Y-70040947D01*
X132517191Y-70070752D01*
X132476414Y-70169195D01*
X132476411Y-70169207D01*
X132441500Y-70344716D01*
X132441500Y-70523683D01*
X132476411Y-70699192D01*
X132476413Y-70699200D01*
X132544896Y-70864532D01*
X132544901Y-70864542D01*
X132644321Y-71013334D01*
X132644324Y-71013338D01*
X132770861Y-71139875D01*
X132770865Y-71139878D01*
X132919657Y-71239298D01*
X132919661Y-71239300D01*
X132919664Y-71239302D01*
X133085000Y-71307787D01*
X133260516Y-71342699D01*
X133260520Y-71342700D01*
X133260521Y-71342700D01*
X133439480Y-71342700D01*
X133439481Y-71342699D01*
X133615000Y-71307787D01*
X133780336Y-71239302D01*
X133929135Y-71139878D01*
X134055678Y-71013335D01*
X134155102Y-70864536D01*
X134223587Y-70699200D01*
X134258500Y-70523679D01*
X134258500Y-70344721D01*
X134223587Y-70169200D01*
X134217321Y-70154072D01*
X134182809Y-70070752D01*
X134175340Y-70001283D01*
X134206615Y-69938804D01*
X134266704Y-69903152D01*
X134297370Y-69899300D01*
X136947834Y-69899300D01*
X136977274Y-69907944D01*
X137007261Y-69914468D01*
X137012276Y-69918222D01*
X137014873Y-69918985D01*
X137035515Y-69935619D01*
X137078781Y-69978885D01*
X137112266Y-70040208D01*
X137115100Y-70066566D01*
X137115100Y-70117283D01*
X137150011Y-70292792D01*
X137150013Y-70292800D01*
X137218496Y-70458132D01*
X137218501Y-70458142D01*
X137317921Y-70606934D01*
X137317924Y-70606938D01*
X137444461Y-70733475D01*
X137444465Y-70733478D01*
X137593257Y-70832898D01*
X137593261Y-70832900D01*
X137593264Y-70832902D01*
X137758600Y-70901387D01*
X137902846Y-70930079D01*
X137934116Y-70936299D01*
X137934120Y-70936300D01*
X137934121Y-70936300D01*
X138113080Y-70936300D01*
X138113081Y-70936299D01*
X138288600Y-70901387D01*
X138453936Y-70832902D01*
X138602735Y-70733478D01*
X138729278Y-70606935D01*
X138828702Y-70458136D01*
X138897187Y-70292800D01*
X138932100Y-70117279D01*
X138932100Y-69938321D01*
X138897187Y-69762800D01*
X138828702Y-69597464D01*
X138828700Y-69597461D01*
X138828698Y-69597457D01*
X138729278Y-69448665D01*
X138729275Y-69448661D01*
X138602738Y-69322124D01*
X138602734Y-69322121D01*
X138453942Y-69222701D01*
X138453932Y-69222696D01*
X138288600Y-69154213D01*
X138288592Y-69154211D01*
X138113083Y-69119300D01*
X138113079Y-69119300D01*
X138062366Y-69119300D01*
X137995327Y-69099615D01*
X137974685Y-69082981D01*
X137665436Y-68773731D01*
X137665432Y-68773728D01*
X137561681Y-68704403D01*
X137561672Y-68704398D01*
X137446385Y-68656645D01*
X137446377Y-68656643D01*
X137323998Y-68632300D01*
X137323994Y-68632300D01*
X118096194Y-68632300D01*
X117971406Y-68632300D01*
X117971401Y-68632300D01*
X117849022Y-68656643D01*
X117849014Y-68656645D01*
X117733727Y-68704398D01*
X117733718Y-68704403D01*
X117629967Y-68773728D01*
X117629963Y-68773731D01*
X114879568Y-71524126D01*
X114818245Y-71557611D01*
X114748553Y-71552627D01*
X114692620Y-71510755D01*
X114668203Y-71445291D01*
X114670269Y-71412258D01*
X114700500Y-71260279D01*
X114700500Y-71081321D01*
X114665587Y-70905800D01*
X114597102Y-70740464D01*
X114597100Y-70740461D01*
X114597098Y-70740457D01*
X114497678Y-70591665D01*
X114497675Y-70591661D01*
X114371138Y-70465124D01*
X114371134Y-70465121D01*
X114222342Y-70365701D01*
X114222332Y-70365696D01*
X114057000Y-70297213D01*
X114056992Y-70297211D01*
X113881483Y-70262300D01*
X113881479Y-70262300D01*
X113702521Y-70262300D01*
X113702516Y-70262300D01*
X113521025Y-70298401D01*
X113520568Y-70296107D01*
X113461073Y-70296626D01*
X113401968Y-70259365D01*
X113372390Y-70196064D01*
X113381731Y-70126822D01*
X113394650Y-70104465D01*
X113410838Y-70082186D01*
X113493624Y-69919710D01*
X113549974Y-69746283D01*
X113578500Y-69566181D01*
X113578500Y-68383818D01*
X113549974Y-68203716D01*
X113523828Y-68123250D01*
X113493624Y-68030290D01*
X113493622Y-68030287D01*
X113493622Y-68030285D01*
X113410837Y-67867813D01*
X113303654Y-67720288D01*
X113174712Y-67591346D01*
X113027186Y-67484162D01*
X112864714Y-67401377D01*
X112691283Y-67345025D01*
X112511181Y-67316500D01*
X112511176Y-67316500D01*
X112328824Y-67316500D01*
X112328819Y-67316500D01*
X112148716Y-67345025D01*
X111975285Y-67401377D01*
X111812813Y-67484162D01*
X111665289Y-67591345D01*
X111552883Y-67703751D01*
X111491560Y-67737235D01*
X111433111Y-67735844D01*
X111297475Y-67699500D01*
X110902525Y-67699500D01*
X110778264Y-67732796D01*
X110762511Y-67737017D01*
X110636988Y-67809488D01*
X110636982Y-67809493D01*
X110534493Y-67911982D01*
X110534488Y-67911988D01*
X110462017Y-68037511D01*
X110462016Y-68037515D01*
X110424500Y-68177525D01*
X110424500Y-68322475D01*
X110440939Y-68383824D01*
X110462017Y-68462488D01*
X110534488Y-68588011D01*
X110534490Y-68588013D01*
X110534491Y-68588015D01*
X110636985Y-68690509D01*
X110636986Y-68690510D01*
X110636988Y-68690511D01*
X110762511Y-68762982D01*
X110762512Y-68762982D01*
X110762515Y-68762984D01*
X110902525Y-68800500D01*
X111137500Y-68800500D01*
X111204539Y-68820185D01*
X111250294Y-68872989D01*
X111261500Y-68924500D01*
X111261500Y-69566181D01*
X111290025Y-69746283D01*
X111346378Y-69919716D01*
X111377301Y-69980404D01*
X111390198Y-70049074D01*
X111363922Y-70113814D01*
X111306816Y-70154072D01*
X111266817Y-70160700D01*
X111137116Y-70160700D01*
X110961607Y-70195611D01*
X110961599Y-70195613D01*
X110796267Y-70264096D01*
X110796257Y-70264101D01*
X110647465Y-70363521D01*
X110647461Y-70363524D01*
X110520922Y-70490063D01*
X110508876Y-70508092D01*
X110455262Y-70552896D01*
X110385937Y-70561602D01*
X110322910Y-70531446D01*
X110318094Y-70526880D01*
X110205538Y-70414324D01*
X110205534Y-70414321D01*
X110056742Y-70314901D01*
X110056732Y-70314896D01*
X109891400Y-70246413D01*
X109891392Y-70246411D01*
X109715883Y-70211500D01*
X109715879Y-70211500D01*
X109536921Y-70211500D01*
X109536916Y-70211500D01*
X109361407Y-70246411D01*
X109361399Y-70246413D01*
X109196067Y-70314896D01*
X109196057Y-70314901D01*
X109047265Y-70414321D01*
X109047261Y-70414324D01*
X108920724Y-70540861D01*
X108920721Y-70540865D01*
X108821301Y-70689657D01*
X108821296Y-70689667D01*
X108752813Y-70854999D01*
X108752811Y-70855007D01*
X108717900Y-71030516D01*
X108717900Y-71209483D01*
X108752811Y-71384992D01*
X108752813Y-71385000D01*
X108821296Y-71550332D01*
X108821301Y-71550342D01*
X108920721Y-71699134D01*
X108920724Y-71699138D01*
X109047261Y-71825675D01*
X109047265Y-71825678D01*
X109196057Y-71925098D01*
X109196061Y-71925100D01*
X109196064Y-71925102D01*
X109361400Y-71993587D01*
X109536916Y-72028499D01*
X109536920Y-72028500D01*
X109536921Y-72028500D01*
X109715880Y-72028500D01*
X109715881Y-72028499D01*
X109891400Y-71993587D01*
X110056736Y-71925102D01*
X110205535Y-71825678D01*
X110332078Y-71699135D01*
X110344121Y-71681110D01*
X110397731Y-71636306D01*
X110467056Y-71627596D01*
X110530084Y-71657749D01*
X110534905Y-71662319D01*
X110647461Y-71774875D01*
X110647465Y-71774878D01*
X110796257Y-71874298D01*
X110796270Y-71874305D01*
X110829092Y-71887900D01*
X110896076Y-71915645D01*
X110950479Y-71959485D01*
X110972544Y-72025779D01*
X110955265Y-72093479D01*
X110936304Y-72117887D01*
X109549012Y-73505181D01*
X109487689Y-73538666D01*
X109461331Y-73541500D01*
X108894470Y-73541500D01*
X108827431Y-73521815D01*
X108781676Y-73469011D01*
X108771732Y-73399853D01*
X108779909Y-73370047D01*
X108782841Y-73362968D01*
X108823587Y-73264600D01*
X108858500Y-73089079D01*
X108858500Y-72910121D01*
X108823587Y-72734600D01*
X108755102Y-72569264D01*
X108755100Y-72569261D01*
X108755098Y-72569257D01*
X108655678Y-72420465D01*
X108655675Y-72420461D01*
X108529138Y-72293924D01*
X108529134Y-72293921D01*
X108380342Y-72194501D01*
X108380332Y-72194496D01*
X108215000Y-72126013D01*
X108214992Y-72126011D01*
X108039483Y-72091100D01*
X108039479Y-72091100D01*
X107860521Y-72091100D01*
X107860516Y-72091100D01*
X107685007Y-72126011D01*
X107684999Y-72126013D01*
X107519667Y-72194496D01*
X107519657Y-72194501D01*
X107370865Y-72293921D01*
X107370861Y-72293924D01*
X107244324Y-72420461D01*
X107244321Y-72420465D01*
X107144901Y-72569257D01*
X107144898Y-72569264D01*
X107139478Y-72582349D01*
X107095636Y-72636752D01*
X107029342Y-72658816D01*
X106961642Y-72641536D01*
X106914032Y-72590398D01*
X106910356Y-72582347D01*
X106905105Y-72569670D01*
X106905098Y-72569657D01*
X106805678Y-72420865D01*
X106805675Y-72420861D01*
X106679138Y-72294324D01*
X106679134Y-72294321D01*
X106530342Y-72194901D01*
X106530332Y-72194896D01*
X106365000Y-72126413D01*
X106364992Y-72126411D01*
X106189483Y-72091500D01*
X106189479Y-72091500D01*
X106010521Y-72091500D01*
X106010516Y-72091500D01*
X105835007Y-72126411D01*
X105834999Y-72126413D01*
X105669667Y-72194896D01*
X105669657Y-72194901D01*
X105520865Y-72294321D01*
X105520861Y-72294324D01*
X105394324Y-72420861D01*
X105394321Y-72420865D01*
X105294901Y-72569657D01*
X105294896Y-72569667D01*
X105226413Y-72734999D01*
X105226411Y-72735007D01*
X105191500Y-72910516D01*
X105191500Y-73089483D01*
X105226411Y-73264992D01*
X105226413Y-73265000D01*
X105269925Y-73370047D01*
X105277394Y-73439517D01*
X105246119Y-73501996D01*
X105186030Y-73537648D01*
X105155364Y-73541500D01*
X96112601Y-73541500D01*
X95990222Y-73565843D01*
X95990214Y-73565845D01*
X95874927Y-73613598D01*
X95874918Y-73613603D01*
X95771167Y-73682928D01*
X95771163Y-73682931D01*
X95682931Y-73771163D01*
X95682928Y-73771167D01*
X95613603Y-73874918D01*
X95613598Y-73874927D01*
X95565845Y-73990214D01*
X95565843Y-73990222D01*
X95541500Y-74112601D01*
X95541500Y-75887398D01*
X95565843Y-76009777D01*
X95565845Y-76009785D01*
X95613598Y-76125072D01*
X95613603Y-76125081D01*
X95682928Y-76228832D01*
X95682931Y-76228836D01*
X96021292Y-76567196D01*
X96048172Y-76607424D01*
X96106277Y-76747700D01*
X96106282Y-76747710D01*
X96165349Y-76836109D01*
X96186227Y-76902786D01*
X96167743Y-76970167D01*
X96165349Y-76973891D01*
X96106282Y-77062289D01*
X96106277Y-77062298D01*
X96030256Y-77245830D01*
X96030254Y-77245838D01*
X95991500Y-77440666D01*
X95991500Y-77639333D01*
X96030254Y-77834161D01*
X96030256Y-77834169D01*
X96106277Y-78017701D01*
X96106282Y-78017710D01*
X96165349Y-78106109D01*
X96186227Y-78172786D01*
X96167743Y-78240167D01*
X96165349Y-78243891D01*
X96106282Y-78332289D01*
X96106277Y-78332298D01*
X96030256Y-78515830D01*
X96030254Y-78515838D01*
X95991500Y-78710666D01*
X95991500Y-78871233D01*
X95971815Y-78938272D01*
X95955181Y-78958914D01*
X95862792Y-79051304D01*
X95771167Y-79142929D01*
X95727047Y-79187049D01*
X95682927Y-79231168D01*
X95613603Y-79334918D01*
X95613598Y-79334927D01*
X95565845Y-79450214D01*
X95565843Y-79450222D01*
X95541500Y-79572601D01*
X95541500Y-80484125D01*
X95565843Y-80606504D01*
X95565845Y-80606512D01*
X95613598Y-80721799D01*
X95613603Y-80721808D01*
X95682928Y-80825559D01*
X95682931Y-80825563D01*
X96166202Y-81308833D01*
X96213308Y-81355939D01*
X96254441Y-81397072D01*
X96358191Y-81466396D01*
X96358200Y-81466401D01*
X96359837Y-81467079D01*
X96473488Y-81514155D01*
X96595874Y-81538499D01*
X96595878Y-81538500D01*
X96595879Y-81538500D01*
X99774623Y-81538500D01*
X99841662Y-81558185D01*
X99887417Y-81610989D01*
X99897361Y-81680147D01*
X99896240Y-81686693D01*
X99891500Y-81710520D01*
X99891500Y-81889483D01*
X99926411Y-82064992D01*
X99926413Y-82065000D01*
X99960702Y-82147781D01*
X99968171Y-82217251D01*
X99936896Y-82279730D01*
X99924807Y-82291087D01*
X99920858Y-82294327D01*
X99794324Y-82420861D01*
X99794321Y-82420865D01*
X99694901Y-82569657D01*
X99694896Y-82569667D01*
X99626413Y-82734999D01*
X99626411Y-82735007D01*
X99591500Y-82910516D01*
X99591500Y-83089483D01*
X99626411Y-83264992D01*
X99626413Y-83265000D01*
X99694896Y-83430332D01*
X99694901Y-83430342D01*
X99794321Y-83579134D01*
X99794324Y-83579138D01*
X99920861Y-83705675D01*
X99920865Y-83705678D01*
X100069657Y-83805098D01*
X100069661Y-83805100D01*
X100069664Y-83805102D01*
X100235000Y-83873587D01*
X100362359Y-83898920D01*
X100410516Y-83908499D01*
X100410520Y-83908500D01*
X100410521Y-83908500D01*
X100589480Y-83908500D01*
X100589481Y-83908499D01*
X100765000Y-83873587D01*
X100930336Y-83805102D01*
X101079135Y-83705678D01*
X101205678Y-83579135D01*
X101305102Y-83430336D01*
X101373587Y-83265000D01*
X101408500Y-83089479D01*
X101408500Y-82910521D01*
X101373587Y-82735000D01*
X101339296Y-82652217D01*
X101331828Y-82582749D01*
X101363103Y-82520270D01*
X101375204Y-82508903D01*
X101379126Y-82505683D01*
X101379135Y-82505678D01*
X101505678Y-82379135D01*
X101605102Y-82230336D01*
X101673587Y-82065000D01*
X101708500Y-81889479D01*
X101708500Y-81710521D01*
X101703760Y-81686691D01*
X101709987Y-81617101D01*
X101752849Y-81561923D01*
X101818738Y-81538678D01*
X101825377Y-81538500D01*
X105798324Y-81538500D01*
X105858904Y-81538834D01*
X105860633Y-81538500D01*
X105862394Y-81538500D01*
X105921910Y-81526661D01*
X105981428Y-81515163D01*
X105983047Y-81514501D01*
X105984777Y-81514158D01*
X105984783Y-81514155D01*
X105984785Y-81514155D01*
X106040829Y-81490940D01*
X106096979Y-81468044D01*
X106096988Y-81468037D01*
X106098710Y-81467129D01*
X106098805Y-81467079D01*
X106100004Y-81466446D01*
X106100069Y-81466402D01*
X106100075Y-81466400D01*
X106150473Y-81432724D01*
X106601412Y-81134995D01*
X106668202Y-81114485D01*
X106693915Y-81116858D01*
X106749044Y-81127824D01*
X106928003Y-81127824D01*
X106928004Y-81127823D01*
X107103523Y-81092911D01*
X107268859Y-81024426D01*
X107417658Y-80925002D01*
X107544201Y-80798459D01*
X107643625Y-80649660D01*
X107712110Y-80484324D01*
X107747023Y-80308803D01*
X107747023Y-80129845D01*
X107738162Y-80085300D01*
X107744388Y-80015713D01*
X107757041Y-79991678D01*
X111313601Y-74729994D01*
X111367450Y-74685478D01*
X111392136Y-74677820D01*
X111447101Y-74666888D01*
X111612437Y-74598403D01*
X111761236Y-74498979D01*
X111887779Y-74372436D01*
X111987203Y-74223637D01*
X112055688Y-74058301D01*
X112090601Y-73882780D01*
X112090601Y-73703822D01*
X112055688Y-73528301D01*
X111987203Y-73362965D01*
X111987201Y-73362962D01*
X111987199Y-73362958D01*
X111887779Y-73214166D01*
X111887776Y-73214162D01*
X111847488Y-73173875D01*
X111814002Y-73112552D01*
X111818986Y-73042861D01*
X111847485Y-72998514D01*
X113003514Y-71842486D01*
X113064835Y-71809003D01*
X113134527Y-71813987D01*
X113178874Y-71842488D01*
X113212861Y-71876475D01*
X113212865Y-71876478D01*
X113361657Y-71975898D01*
X113361661Y-71975900D01*
X113361664Y-71975902D01*
X113527000Y-72044387D01*
X113702516Y-72079299D01*
X113702520Y-72079300D01*
X113702521Y-72079300D01*
X113881480Y-72079300D01*
X113881480Y-72079299D01*
X114033455Y-72049070D01*
X114103045Y-72055297D01*
X114158222Y-72098160D01*
X114181467Y-72164049D01*
X114165399Y-72232046D01*
X114145326Y-72258368D01*
X113428368Y-72975328D01*
X113195887Y-73207809D01*
X113151767Y-73251929D01*
X113107647Y-73296048D01*
X113038323Y-73399798D01*
X113038318Y-73399807D01*
X112990565Y-73515094D01*
X112990563Y-73515102D01*
X112966220Y-73637481D01*
X112966220Y-75189669D01*
X112946535Y-75256708D01*
X112893731Y-75302463D01*
X112824573Y-75312407D01*
X112794770Y-75304231D01*
X112787004Y-75301014D01*
X112786992Y-75301011D01*
X112611483Y-75266100D01*
X112611479Y-75266100D01*
X112432521Y-75266100D01*
X112432516Y-75266100D01*
X112257007Y-75301011D01*
X112256999Y-75301013D01*
X112091667Y-75369496D01*
X112091657Y-75369501D01*
X111942865Y-75468921D01*
X111942861Y-75468924D01*
X111816324Y-75595461D01*
X111816321Y-75595465D01*
X111716901Y-75744257D01*
X111716896Y-75744267D01*
X111648413Y-75909599D01*
X111648411Y-75909607D01*
X111613500Y-76085116D01*
X111613500Y-76264083D01*
X111648411Y-76439592D01*
X111648413Y-76439600D01*
X111716896Y-76604932D01*
X111716901Y-76604942D01*
X111816321Y-76753734D01*
X111816324Y-76753738D01*
X111942861Y-76880275D01*
X111942865Y-76880278D01*
X112091657Y-76979698D01*
X112091661Y-76979700D01*
X112091664Y-76979702D01*
X112257000Y-77048187D01*
X112355331Y-77067746D01*
X112432516Y-77083099D01*
X112432520Y-77083100D01*
X112432521Y-77083100D01*
X112611480Y-77083100D01*
X112611481Y-77083099D01*
X112787000Y-77048187D01*
X112794764Y-77044970D01*
X112827392Y-77041461D01*
X112859867Y-77036792D01*
X112861952Y-77037744D01*
X112864232Y-77037499D01*
X112893572Y-77052184D01*
X112923423Y-77065817D01*
X112924662Y-77067746D01*
X112926712Y-77068772D01*
X112943453Y-77096985D01*
X112961197Y-77124595D01*
X112961631Y-77127620D01*
X112962367Y-77128859D01*
X112966220Y-77159530D01*
X112966220Y-77246914D01*
X112946535Y-77313953D01*
X112929901Y-77334595D01*
X111991840Y-78272655D01*
X111930517Y-78306140D01*
X111860825Y-78301156D01*
X111804892Y-78259284D01*
X111789600Y-78232430D01*
X111752826Y-78143651D01*
X111726905Y-78081070D01*
X111726898Y-78081057D01*
X111627478Y-77932265D01*
X111627475Y-77932261D01*
X111500938Y-77805724D01*
X111500934Y-77805721D01*
X111352142Y-77706301D01*
X111352132Y-77706296D01*
X111186800Y-77637813D01*
X111186792Y-77637811D01*
X111011283Y-77602900D01*
X111011279Y-77602900D01*
X110832321Y-77602900D01*
X110832316Y-77602900D01*
X110656807Y-77637811D01*
X110656799Y-77637813D01*
X110491467Y-77706296D01*
X110491457Y-77706301D01*
X110342665Y-77805721D01*
X110342661Y-77805724D01*
X110216124Y-77932261D01*
X110216121Y-77932265D01*
X110116701Y-78081057D01*
X110116696Y-78081067D01*
X110048213Y-78246399D01*
X110048211Y-78246407D01*
X110013300Y-78421916D01*
X110013300Y-78600883D01*
X110032656Y-78698193D01*
X110026429Y-78767785D01*
X109998722Y-78810063D01*
X109962124Y-78846662D01*
X109962119Y-78846668D01*
X109862701Y-78995457D01*
X109862696Y-78995467D01*
X109794213Y-79160799D01*
X109794211Y-79160807D01*
X109759300Y-79336316D01*
X109759300Y-79515283D01*
X109794211Y-79690792D01*
X109794213Y-79690800D01*
X109862696Y-79856132D01*
X109862701Y-79856142D01*
X109962121Y-80004934D01*
X109962124Y-80004938D01*
X110023159Y-80065973D01*
X110056644Y-80127296D01*
X110051660Y-80196988D01*
X110023159Y-80241335D01*
X108633915Y-81630581D01*
X108572592Y-81664066D01*
X108546234Y-81666900D01*
X108495516Y-81666900D01*
X108320007Y-81701811D01*
X108319999Y-81701813D01*
X108154667Y-81770296D01*
X108154657Y-81770301D01*
X108005865Y-81869721D01*
X108005861Y-81869724D01*
X107879324Y-81996261D01*
X107879321Y-81996265D01*
X107779901Y-82145057D01*
X107779896Y-82145067D01*
X107711413Y-82310399D01*
X107711411Y-82310407D01*
X107676500Y-82485916D01*
X107676500Y-82558900D01*
X107656815Y-82625939D01*
X107604011Y-82671694D01*
X107552500Y-82682900D01*
X107530316Y-82682900D01*
X107354807Y-82717811D01*
X107354799Y-82717813D01*
X107189467Y-82786296D01*
X107189457Y-82786301D01*
X107040665Y-82885721D01*
X107013736Y-82912650D01*
X106952412Y-82946134D01*
X106882721Y-82941148D01*
X106826788Y-82899276D01*
X106806520Y-82847049D01*
X106804276Y-82847496D01*
X106776946Y-82710101D01*
X106768174Y-82666000D01*
X106699689Y-82500664D01*
X106699687Y-82500661D01*
X106699685Y-82500657D01*
X106600265Y-82351865D01*
X106600262Y-82351861D01*
X106473725Y-82225324D01*
X106473721Y-82225321D01*
X106324929Y-82125901D01*
X106324919Y-82125896D01*
X106159587Y-82057413D01*
X106159579Y-82057411D01*
X105984070Y-82022500D01*
X105984066Y-82022500D01*
X105805108Y-82022500D01*
X105805103Y-82022500D01*
X105629594Y-82057411D01*
X105629586Y-82057413D01*
X105464254Y-82125896D01*
X105464244Y-82125901D01*
X105315452Y-82225321D01*
X105315448Y-82225324D01*
X105188911Y-82351861D01*
X105188908Y-82351865D01*
X105089488Y-82500657D01*
X105089483Y-82500667D01*
X105021000Y-82665999D01*
X105020998Y-82666007D01*
X104986087Y-82841516D01*
X104986087Y-83020483D01*
X105020998Y-83195992D01*
X105021001Y-83196004D01*
X105065801Y-83304161D01*
X105073270Y-83373630D01*
X105041995Y-83436109D01*
X104981906Y-83471761D01*
X104975432Y-83473230D01*
X104942345Y-83479811D01*
X104942339Y-83479813D01*
X104777007Y-83548296D01*
X104776997Y-83548301D01*
X104628205Y-83647721D01*
X104628201Y-83647724D01*
X104501664Y-83774261D01*
X104501661Y-83774265D01*
X104402241Y-83923057D01*
X104402236Y-83923067D01*
X104333753Y-84088399D01*
X104333751Y-84088407D01*
X104298840Y-84263916D01*
X104298840Y-84442883D01*
X104333751Y-84618392D01*
X104333753Y-84618400D01*
X104402236Y-84783732D01*
X104402241Y-84783742D01*
X104501661Y-84932534D01*
X104501664Y-84932538D01*
X104628201Y-85059075D01*
X104628205Y-85059078D01*
X104776997Y-85158498D01*
X104777001Y-85158500D01*
X104777004Y-85158502D01*
X104942340Y-85226987D01*
X105117856Y-85261899D01*
X105117860Y-85261900D01*
X105117861Y-85261900D01*
X105296820Y-85261900D01*
X105296821Y-85261899D01*
X105472340Y-85226987D01*
X105637676Y-85158502D01*
X105786475Y-85059078D01*
X105913018Y-84932535D01*
X106012442Y-84783736D01*
X106080927Y-84618400D01*
X106115840Y-84442879D01*
X106115840Y-84263921D01*
X106080927Y-84088400D01*
X106043910Y-83999033D01*
X106036125Y-83980239D01*
X106028656Y-83910769D01*
X106059931Y-83848290D01*
X106120020Y-83812638D01*
X106126471Y-83811174D01*
X106159587Y-83804587D01*
X106324923Y-83736102D01*
X106473722Y-83636678D01*
X106500649Y-83609750D01*
X106561970Y-83576266D01*
X106631662Y-83581250D01*
X106687596Y-83623120D01*
X106707880Y-83675347D01*
X106710111Y-83674904D01*
X106746211Y-83856392D01*
X106746213Y-83856400D01*
X106814695Y-84021730D01*
X106814701Y-84021742D01*
X106914121Y-84170534D01*
X106914124Y-84170538D01*
X107040661Y-84297075D01*
X107040665Y-84297078D01*
X107189457Y-84396498D01*
X107189461Y-84396500D01*
X107189464Y-84396502D01*
X107354800Y-84464987D01*
X107482496Y-84490387D01*
X107530316Y-84499899D01*
X107530320Y-84499900D01*
X107530321Y-84499900D01*
X107709280Y-84499900D01*
X107709281Y-84499899D01*
X107884800Y-84464987D01*
X108050136Y-84396502D01*
X108154203Y-84326966D01*
X108220879Y-84306089D01*
X108288259Y-84324573D01*
X108291965Y-84326954D01*
X108317782Y-84344205D01*
X108434057Y-84421898D01*
X108434061Y-84421900D01*
X108434064Y-84421902D01*
X108599400Y-84490387D01*
X108738191Y-84517994D01*
X108774916Y-84525299D01*
X108774920Y-84525300D01*
X108774921Y-84525300D01*
X108953880Y-84525300D01*
X108953881Y-84525299D01*
X109129400Y-84490387D01*
X109294736Y-84421902D01*
X109443535Y-84322478D01*
X109570078Y-84195935D01*
X109669502Y-84047136D01*
X109737987Y-83881800D01*
X109772900Y-83706279D01*
X109772900Y-83527321D01*
X109737987Y-83351800D01*
X109669502Y-83186464D01*
X109669500Y-83186461D01*
X109669498Y-83186457D01*
X109570079Y-83037666D01*
X109536529Y-83004116D01*
X109491175Y-82958762D01*
X109457692Y-82897442D01*
X109459777Y-82846848D01*
X109457399Y-82846375D01*
X109492144Y-82671694D01*
X109493500Y-82664879D01*
X109493500Y-82614165D01*
X109513185Y-82547126D01*
X109529814Y-82526489D01*
X111173837Y-80882465D01*
X111235158Y-80848982D01*
X111304850Y-80853966D01*
X111360783Y-80895838D01*
X111376077Y-80922695D01*
X111386696Y-80948333D01*
X111386701Y-80948342D01*
X111486121Y-81097134D01*
X111486124Y-81097138D01*
X111612661Y-81223675D01*
X111612665Y-81223678D01*
X111761457Y-81323098D01*
X111761461Y-81323100D01*
X111761464Y-81323102D01*
X111926800Y-81391587D01*
X112033949Y-81412900D01*
X112102316Y-81426499D01*
X112102320Y-81426500D01*
X112102321Y-81426500D01*
X112281280Y-81426500D01*
X112281281Y-81426499D01*
X112456800Y-81391587D01*
X112622136Y-81323102D01*
X112759757Y-81231146D01*
X112826433Y-81210269D01*
X112893813Y-81228753D01*
X112940504Y-81280732D01*
X112951680Y-81349702D01*
X112941963Y-81384602D01*
X111999437Y-83505682D01*
X111980563Y-83527919D01*
X111963929Y-83551879D01*
X111956475Y-83556301D01*
X111954226Y-83558952D01*
X111933576Y-83569889D01*
X111883643Y-83590573D01*
X111814174Y-83598043D01*
X111751694Y-83566769D01*
X111748534Y-83563721D01*
X111679135Y-83494322D01*
X111679134Y-83494321D01*
X111679133Y-83494320D01*
X111530342Y-83394901D01*
X111530332Y-83394896D01*
X111365000Y-83326413D01*
X111364992Y-83326411D01*
X111189483Y-83291500D01*
X111189479Y-83291500D01*
X111010521Y-83291500D01*
X111010516Y-83291500D01*
X110835007Y-83326411D01*
X110834999Y-83326413D01*
X110669667Y-83394896D01*
X110669657Y-83394901D01*
X110520865Y-83494321D01*
X110520861Y-83494324D01*
X110394324Y-83620861D01*
X110394321Y-83620865D01*
X110294901Y-83769657D01*
X110294896Y-83769667D01*
X110226413Y-83934999D01*
X110226411Y-83935007D01*
X110191500Y-84110516D01*
X110191500Y-84289483D01*
X110226411Y-84464992D01*
X110226413Y-84465000D01*
X110294896Y-84630332D01*
X110294901Y-84630342D01*
X110394321Y-84779134D01*
X110394324Y-84779138D01*
X110520861Y-84905675D01*
X110520865Y-84905678D01*
X110669657Y-85005098D01*
X110669661Y-85005100D01*
X110669664Y-85005102D01*
X110835000Y-85073587D01*
X111005564Y-85107514D01*
X111010516Y-85108499D01*
X111010520Y-85108500D01*
X111010521Y-85108500D01*
X111189480Y-85108500D01*
X111189481Y-85108499D01*
X111365000Y-85073587D01*
X111509761Y-85013624D01*
X111579226Y-85006156D01*
X111641705Y-85037430D01*
X111644891Y-85040505D01*
X111714261Y-85109875D01*
X111714265Y-85109878D01*
X111863057Y-85209298D01*
X111863061Y-85209300D01*
X111863064Y-85209302D01*
X112028400Y-85277787D01*
X112203916Y-85312699D01*
X112203920Y-85312700D01*
X112203921Y-85312700D01*
X112382880Y-85312700D01*
X112382881Y-85312699D01*
X112558400Y-85277787D01*
X112723736Y-85209302D01*
X112872535Y-85109878D01*
X112999078Y-84983335D01*
X113098502Y-84834536D01*
X113166987Y-84669200D01*
X113201900Y-84493679D01*
X113201900Y-84314721D01*
X113166987Y-84139200D01*
X113157151Y-84115455D01*
X113149682Y-84045989D01*
X113158393Y-84017657D01*
X114517358Y-80959416D01*
X114562568Y-80906148D01*
X114629403Y-80885778D01*
X114696640Y-80904774D01*
X114699544Y-80906656D01*
X114809464Y-80980102D01*
X114974800Y-81048587D01*
X115150316Y-81083499D01*
X115150320Y-81083500D01*
X115150321Y-81083500D01*
X115329280Y-81083500D01*
X115329281Y-81083499D01*
X115504800Y-81048587D01*
X115670136Y-80980102D01*
X115818935Y-80880678D01*
X115945478Y-80754135D01*
X116044902Y-80605336D01*
X116113387Y-80440000D01*
X116148300Y-80264479D01*
X116148300Y-80085521D01*
X116113387Y-79910000D01*
X116044902Y-79744664D01*
X116044900Y-79744661D01*
X116044898Y-79744657D01*
X115945478Y-79595865D01*
X115945475Y-79595861D01*
X115818938Y-79469324D01*
X115818934Y-79469321D01*
X115670142Y-79369901D01*
X115670132Y-79369896D01*
X115504800Y-79301413D01*
X115504792Y-79301411D01*
X115329283Y-79266500D01*
X115329279Y-79266500D01*
X115150321Y-79266500D01*
X115150320Y-79266500D01*
X115118201Y-79272888D01*
X115048610Y-79266659D01*
X114993434Y-79223794D01*
X114970191Y-79157904D01*
X114970031Y-79149160D01*
X115047558Y-74625869D01*
X115056402Y-74597553D01*
X115062708Y-74568568D01*
X115067423Y-74562268D01*
X115068389Y-74559178D01*
X115083854Y-74540319D01*
X115099261Y-74524912D01*
X115160582Y-74491429D01*
X115177107Y-74488985D01*
X120167880Y-74092259D01*
X120184171Y-74092039D01*
X120196666Y-74092692D01*
X120234112Y-74087255D01*
X120242080Y-74086361D01*
X120250719Y-74085674D01*
X120279792Y-74083365D01*
X120279794Y-74083364D01*
X120279798Y-74083364D01*
X120299699Y-74077734D01*
X120320160Y-74074764D01*
X120359599Y-74060790D01*
X120399875Y-74049397D01*
X120418294Y-74039993D01*
X120437784Y-74033088D01*
X120473745Y-74011684D01*
X120511018Y-73992656D01*
X120527247Y-73979841D01*
X120545017Y-73969265D01*
X120576111Y-73941257D01*
X120608956Y-73915323D01*
X120617077Y-73905797D01*
X120628438Y-73894125D01*
X122213327Y-72466576D01*
X122276313Y-72436336D01*
X122345650Y-72444949D01*
X122399323Y-72489680D01*
X122420292Y-72556329D01*
X122401899Y-72623735D01*
X122383996Y-72646393D01*
X119696294Y-75334095D01*
X119634971Y-75367580D01*
X119565279Y-75362596D01*
X119561160Y-75360975D01*
X119416400Y-75301013D01*
X119416392Y-75301011D01*
X119240883Y-75266100D01*
X119240879Y-75266100D01*
X119061921Y-75266100D01*
X119061916Y-75266100D01*
X118886407Y-75301011D01*
X118886399Y-75301013D01*
X118721067Y-75369496D01*
X118721057Y-75369501D01*
X118572265Y-75468921D01*
X118572261Y-75468924D01*
X118445724Y-75595461D01*
X118445721Y-75595465D01*
X118346301Y-75744257D01*
X118346296Y-75744267D01*
X118277813Y-75909599D01*
X118277811Y-75909607D01*
X118242900Y-76085116D01*
X118242900Y-76264083D01*
X118277811Y-76439592D01*
X118277813Y-76439600D01*
X118346296Y-76604932D01*
X118346301Y-76604942D01*
X118445721Y-76753734D01*
X118445724Y-76753738D01*
X118572261Y-76880275D01*
X118572265Y-76880278D01*
X118721057Y-76979698D01*
X118721061Y-76979700D01*
X118721064Y-76979702D01*
X118886400Y-77048187D01*
X118984731Y-77067746D01*
X119061916Y-77083099D01*
X119061920Y-77083100D01*
X119061921Y-77083100D01*
X119240880Y-77083100D01*
X119240881Y-77083099D01*
X119416400Y-77048187D01*
X119581736Y-76979702D01*
X119730535Y-76880278D01*
X119773290Y-76837522D01*
X119834610Y-76804037D01*
X119836641Y-76803614D01*
X119936480Y-76783755D01*
X120051770Y-76736000D01*
X120155528Y-76666671D01*
X123131813Y-73690385D01*
X123193134Y-73656902D01*
X123262826Y-73661886D01*
X123307173Y-73690387D01*
X123347461Y-73730675D01*
X123347465Y-73730678D01*
X123496257Y-73830098D01*
X123496261Y-73830100D01*
X123496264Y-73830102D01*
X123661600Y-73898587D01*
X123837116Y-73933499D01*
X123837120Y-73933500D01*
X123837121Y-73933500D01*
X123840115Y-73933500D01*
X123841011Y-73933763D01*
X123841911Y-73933513D01*
X123874492Y-73943594D01*
X123907154Y-73953185D01*
X123908058Y-73953980D01*
X123908658Y-73954166D01*
X123934994Y-73977663D01*
X123963621Y-74011684D01*
X124031785Y-74092691D01*
X124044113Y-74107341D01*
X124072215Y-74171310D01*
X124061271Y-74240318D01*
X124014756Y-74292453D01*
X123947438Y-74311165D01*
X123901782Y-74301740D01*
X123861400Y-74285013D01*
X123861395Y-74285012D01*
X123861392Y-74285011D01*
X123685883Y-74250100D01*
X123685879Y-74250100D01*
X123506921Y-74250100D01*
X123506916Y-74250100D01*
X123331407Y-74285011D01*
X123331399Y-74285013D01*
X123166067Y-74353496D01*
X123166057Y-74353501D01*
X123017265Y-74452921D01*
X123017261Y-74452924D01*
X122890724Y-74579461D01*
X122890721Y-74579465D01*
X122791301Y-74728257D01*
X122791296Y-74728267D01*
X122722813Y-74893599D01*
X122722811Y-74893607D01*
X122687900Y-75069116D01*
X122687900Y-75119833D01*
X122668215Y-75186872D01*
X122651581Y-75207514D01*
X120230885Y-77628209D01*
X120229556Y-77629537D01*
X120191035Y-77665825D01*
X120185503Y-77673589D01*
X120178769Y-77680324D01*
X120178755Y-77680341D01*
X120150383Y-77722802D01*
X120148284Y-77725844D01*
X120118638Y-77767467D01*
X120118635Y-77767473D01*
X120114724Y-77776168D01*
X120109428Y-77784097D01*
X120089203Y-77832921D01*
X120088431Y-77834640D01*
X120088413Y-77834683D01*
X120067461Y-77881280D01*
X120065852Y-77888267D01*
X120065321Y-77890577D01*
X120061673Y-77899387D01*
X120051351Y-77951274D01*
X120050932Y-77953097D01*
X120050931Y-77953103D01*
X120039472Y-78002894D01*
X120039472Y-78002897D01*
X120039187Y-78012427D01*
X120037328Y-78021778D01*
X120037328Y-78074718D01*
X120037273Y-78076561D01*
X120037273Y-78076565D01*
X119951659Y-80942365D01*
X119929981Y-81008787D01*
X119875834Y-81052944D01*
X119806410Y-81060818D01*
X119758824Y-81041765D01*
X119708740Y-81008300D01*
X119708732Y-81008296D01*
X119543400Y-80939813D01*
X119543392Y-80939811D01*
X119367883Y-80904900D01*
X119367879Y-80904900D01*
X119188921Y-80904900D01*
X119188916Y-80904900D01*
X119013407Y-80939811D01*
X119013399Y-80939813D01*
X118848067Y-81008296D01*
X118848057Y-81008301D01*
X118699265Y-81107721D01*
X118699261Y-81107724D01*
X118572724Y-81234261D01*
X118572721Y-81234265D01*
X118473301Y-81383057D01*
X118473296Y-81383067D01*
X118404813Y-81548399D01*
X118404811Y-81548407D01*
X118369900Y-81723916D01*
X118369900Y-81902883D01*
X118404811Y-82078392D01*
X118404813Y-82078400D01*
X118473297Y-82243734D01*
X118484885Y-82261077D01*
X118505762Y-82327755D01*
X118502607Y-82357849D01*
X118407950Y-82768031D01*
X118373695Y-82828928D01*
X118311955Y-82861638D01*
X118242331Y-82855776D01*
X118199444Y-82827830D01*
X118181138Y-82809524D01*
X118181134Y-82809521D01*
X118032342Y-82710101D01*
X118032332Y-82710096D01*
X117867000Y-82641613D01*
X117866992Y-82641611D01*
X117691483Y-82606700D01*
X117691479Y-82606700D01*
X117512521Y-82606700D01*
X117512516Y-82606700D01*
X117337007Y-82641611D01*
X117336999Y-82641613D01*
X117171667Y-82710096D01*
X117171657Y-82710101D01*
X117022865Y-82809521D01*
X117022861Y-82809524D01*
X116896324Y-82936061D01*
X116896321Y-82936065D01*
X116796901Y-83084857D01*
X116796896Y-83084867D01*
X116728413Y-83250199D01*
X116728411Y-83250207D01*
X116693500Y-83425716D01*
X116693500Y-83604683D01*
X116728411Y-83780192D01*
X116728413Y-83780200D01*
X116796896Y-83945532D01*
X116796901Y-83945542D01*
X116896321Y-84094334D01*
X116896324Y-84094338D01*
X117022861Y-84220875D01*
X117022869Y-84220881D01*
X117171653Y-84320295D01*
X117171657Y-84320297D01*
X117171664Y-84320302D01*
X117178943Y-84323317D01*
X117204885Y-84344221D01*
X117231366Y-84364387D01*
X117232471Y-84366450D01*
X117233346Y-84367156D01*
X117248025Y-84395502D01*
X117325546Y-84608684D01*
X117329957Y-84678414D01*
X117295969Y-84739460D01*
X117234372Y-84772439D01*
X117211534Y-84775034D01*
X116731168Y-84784807D01*
X116663742Y-84766490D01*
X116616923Y-84714628D01*
X116605864Y-84652171D01*
X116605500Y-84652171D01*
X116605500Y-84650112D01*
X116605244Y-84648667D01*
X116605498Y-84646087D01*
X116605500Y-84646079D01*
X116605500Y-84467121D01*
X116570587Y-84291600D01*
X116502102Y-84126264D01*
X116502100Y-84126261D01*
X116502098Y-84126257D01*
X116402678Y-83977465D01*
X116402675Y-83977461D01*
X116276138Y-83850924D01*
X116276134Y-83850921D01*
X116127342Y-83751501D01*
X116127332Y-83751496D01*
X115962000Y-83683013D01*
X115961992Y-83683011D01*
X115786483Y-83648100D01*
X115786479Y-83648100D01*
X115607521Y-83648100D01*
X115607516Y-83648100D01*
X115432007Y-83683011D01*
X115431999Y-83683013D01*
X115266667Y-83751496D01*
X115266657Y-83751501D01*
X115117865Y-83850921D01*
X115117861Y-83850924D01*
X114991324Y-83977461D01*
X114991321Y-83977465D01*
X114891901Y-84126257D01*
X114891896Y-84126267D01*
X114823413Y-84291599D01*
X114823411Y-84291607D01*
X114788500Y-84467116D01*
X114788500Y-84646079D01*
X114794940Y-84678458D01*
X114788711Y-84748049D01*
X114745847Y-84803226D01*
X114679957Y-84826469D01*
X114675844Y-84826621D01*
X114166370Y-84836985D01*
X114166371Y-84836986D01*
X114161180Y-84837091D01*
X114125360Y-84834824D01*
X114098978Y-84838356D01*
X114091968Y-84838499D01*
X114091968Y-84838500D01*
X114072339Y-84838899D01*
X114072326Y-84838901D01*
X114042326Y-84845504D01*
X114042327Y-84845505D01*
X114037263Y-84846620D01*
X114001676Y-84851386D01*
X113976474Y-84860003D01*
X113969635Y-84861509D01*
X113969633Y-84861508D01*
X113950466Y-84865729D01*
X113950457Y-84865732D01*
X113922324Y-84878060D01*
X113912684Y-84881813D01*
X113883597Y-84891760D01*
X113883596Y-84891761D01*
X113866614Y-84901615D01*
X113866615Y-84901616D01*
X113860561Y-84905129D01*
X113836168Y-84915820D01*
X113806726Y-84936369D01*
X113802245Y-84938970D01*
X113775671Y-84954391D01*
X113760928Y-84967378D01*
X113760927Y-84967377D01*
X113755668Y-84972009D01*
X113733842Y-84987245D01*
X113708980Y-85013138D01*
X113705094Y-85016562D01*
X113705085Y-85016570D01*
X113682030Y-85036881D01*
X113670113Y-85052483D01*
X113661020Y-85063090D01*
X113647422Y-85077253D01*
X113647411Y-85077266D01*
X113630868Y-85103146D01*
X113630869Y-85103147D01*
X113628071Y-85107523D01*
X113606283Y-85136051D01*
X113594560Y-85159954D01*
X113590788Y-85165857D01*
X113590788Y-85165859D01*
X113580215Y-85182401D01*
X113580210Y-85182412D01*
X113569034Y-85211024D01*
X113564867Y-85220504D01*
X113386094Y-85585055D01*
X113338902Y-85636579D01*
X113271346Y-85654411D01*
X113258576Y-85653397D01*
X113168200Y-85641500D01*
X113168198Y-85641500D01*
X112891802Y-85641500D01*
X112891796Y-85641500D01*
X112891791Y-85641501D01*
X112617772Y-85677576D01*
X112350783Y-85749116D01*
X112095442Y-85854881D01*
X112095432Y-85854886D01*
X111856067Y-85993085D01*
X111856057Y-85993091D01*
X111636787Y-86161342D01*
X111636780Y-86161348D01*
X111441348Y-86356780D01*
X111441342Y-86356787D01*
X111273091Y-86576057D01*
X111273085Y-86576067D01*
X111232387Y-86646558D01*
X111181819Y-86694773D01*
X111113212Y-86707995D01*
X111048348Y-86682027D01*
X111017613Y-86646558D01*
X110976915Y-86576067D01*
X110976910Y-86576061D01*
X110976908Y-86576057D01*
X110808657Y-86356787D01*
X110808651Y-86356780D01*
X110613219Y-86161348D01*
X110613212Y-86161342D01*
X110393942Y-85993091D01*
X110393936Y-85993087D01*
X110393933Y-85993085D01*
X110154567Y-85854886D01*
X110154557Y-85854881D01*
X109899216Y-85749116D01*
X109892692Y-85747368D01*
X109632231Y-85677577D01*
X109632230Y-85677576D01*
X109632227Y-85677576D01*
X109358208Y-85641501D01*
X109358203Y-85641500D01*
X109358198Y-85641500D01*
X109081802Y-85641500D01*
X109081796Y-85641500D01*
X109081791Y-85641501D01*
X108807772Y-85677576D01*
X108540783Y-85749116D01*
X108285442Y-85854881D01*
X108285432Y-85854886D01*
X108046067Y-85993085D01*
X108046057Y-85993091D01*
X107826787Y-86161342D01*
X107826780Y-86161348D01*
X107631348Y-86356780D01*
X107631342Y-86356787D01*
X107463091Y-86576057D01*
X107463085Y-86576067D01*
X107422387Y-86646558D01*
X107371819Y-86694773D01*
X107303212Y-86707995D01*
X107238348Y-86682027D01*
X107207613Y-86646558D01*
X107166915Y-86576067D01*
X107166910Y-86576061D01*
X107166908Y-86576057D01*
X106998657Y-86356787D01*
X106998651Y-86356780D01*
X106803219Y-86161348D01*
X106803212Y-86161342D01*
X106583942Y-85993091D01*
X106583936Y-85993087D01*
X106583933Y-85993085D01*
X106344567Y-85854886D01*
X106344557Y-85854881D01*
X106089216Y-85749116D01*
X106082692Y-85747368D01*
X105822231Y-85677577D01*
X105822230Y-85677576D01*
X105822227Y-85677576D01*
X105548208Y-85641501D01*
X105548203Y-85641500D01*
X105548198Y-85641500D01*
X105271802Y-85641500D01*
X105271796Y-85641500D01*
X105271791Y-85641501D01*
X104997772Y-85677576D01*
X104730783Y-85749116D01*
X104475442Y-85854881D01*
X104475432Y-85854886D01*
X104236067Y-85993085D01*
X104236057Y-85993091D01*
X104016787Y-86161342D01*
X104016780Y-86161348D01*
X103821348Y-86356780D01*
X103821342Y-86356787D01*
X103653091Y-86576057D01*
X103653085Y-86576067D01*
X103612387Y-86646558D01*
X103561819Y-86694773D01*
X103493212Y-86707995D01*
X103428348Y-86682027D01*
X103397613Y-86646558D01*
X103356915Y-86576067D01*
X103356910Y-86576061D01*
X103356908Y-86576057D01*
X103248959Y-86435374D01*
X103223765Y-86370205D01*
X103237804Y-86301760D01*
X103278443Y-86256786D01*
X103398335Y-86176678D01*
X103524878Y-86050135D01*
X103624302Y-85901336D01*
X103692787Y-85736000D01*
X103727700Y-85560479D01*
X103727700Y-85381521D01*
X103692787Y-85206000D01*
X103624302Y-85040664D01*
X103624300Y-85040661D01*
X103624298Y-85040657D01*
X103524878Y-84891865D01*
X103524875Y-84891861D01*
X103398338Y-84765324D01*
X103398334Y-84765321D01*
X103249542Y-84665901D01*
X103249532Y-84665896D01*
X103084200Y-84597413D01*
X103084192Y-84597411D01*
X102908683Y-84562500D01*
X102908679Y-84562500D01*
X102729721Y-84562500D01*
X102729716Y-84562500D01*
X102554207Y-84597411D01*
X102554199Y-84597413D01*
X102388867Y-84665896D01*
X102388857Y-84665901D01*
X102240065Y-84765321D01*
X102240061Y-84765324D01*
X102113524Y-84891861D01*
X102113521Y-84891865D01*
X102014101Y-85040657D01*
X102014096Y-85040667D01*
X101945613Y-85205999D01*
X101945611Y-85206007D01*
X101910700Y-85381516D01*
X101910700Y-85522815D01*
X101891015Y-85589854D01*
X101838211Y-85635609D01*
X101770516Y-85645754D01*
X101738200Y-85641500D01*
X101738198Y-85641500D01*
X101461802Y-85641500D01*
X101461796Y-85641500D01*
X101461791Y-85641501D01*
X101187772Y-85677576D01*
X100920783Y-85749116D01*
X100665442Y-85854881D01*
X100665432Y-85854886D01*
X100426067Y-85993085D01*
X100426057Y-85993091D01*
X100206787Y-86161342D01*
X100206780Y-86161348D01*
X100011348Y-86356780D01*
X100011342Y-86356787D01*
X99843091Y-86576057D01*
X99843085Y-86576067D01*
X99704886Y-86815432D01*
X99704881Y-86815442D01*
X99599116Y-87070783D01*
X99527576Y-87337772D01*
X99491501Y-87611791D01*
X99491500Y-87611808D01*
X99491500Y-87888191D01*
X99491501Y-87888208D01*
X99527576Y-88162227D01*
X99599116Y-88429216D01*
X99704881Y-88684557D01*
X99704882Y-88684558D01*
X99704886Y-88684567D01*
X99843085Y-88923933D01*
X99843087Y-88923936D01*
X99843091Y-88923942D01*
X100011342Y-89143212D01*
X100011348Y-89143219D01*
X100206780Y-89338651D01*
X100206787Y-89338657D01*
X100239976Y-89364124D01*
X100281179Y-89420552D01*
X100285334Y-89490298D01*
X100251122Y-89551218D01*
X100189405Y-89583971D01*
X100164490Y-89586500D01*
X97989500Y-89586500D01*
X97922461Y-89566815D01*
X97876706Y-89514011D01*
X97865500Y-89462500D01*
X97865500Y-84566983D01*
X97865500Y-84566982D01*
X97854006Y-84539233D01*
X97832767Y-84517994D01*
X97805018Y-84506500D01*
X97805017Y-84506500D01*
X94179500Y-84506500D01*
X94112461Y-84486815D01*
X94066706Y-84434011D01*
X94055500Y-84382500D01*
X94055500Y-72589500D01*
X94075185Y-72522461D01*
X94127989Y-72476706D01*
X94179500Y-72465500D01*
X101615016Y-72465500D01*
X101615018Y-72465500D01*
X101642767Y-72454006D01*
X101664006Y-72432767D01*
X101675500Y-72405018D01*
X101675500Y-68383818D01*
X102621500Y-68383818D01*
X102621500Y-69566181D01*
X102650025Y-69746283D01*
X102706377Y-69919714D01*
X102781203Y-70066566D01*
X102789162Y-70082186D01*
X102896346Y-70229712D01*
X103025288Y-70358654D01*
X103076778Y-70396064D01*
X103119444Y-70451393D01*
X103125423Y-70521006D01*
X103118454Y-70543834D01*
X103063214Y-70677195D01*
X103063211Y-70677207D01*
X103028300Y-70852716D01*
X103028300Y-71031683D01*
X103063211Y-71207192D01*
X103063213Y-71207200D01*
X103131696Y-71372532D01*
X103131701Y-71372542D01*
X103231121Y-71521334D01*
X103231124Y-71521338D01*
X103357661Y-71647875D01*
X103357665Y-71647878D01*
X103506457Y-71747298D01*
X103506461Y-71747300D01*
X103506464Y-71747302D01*
X103671800Y-71815787D01*
X103847316Y-71850699D01*
X103847320Y-71850700D01*
X103847321Y-71850700D01*
X104026280Y-71850700D01*
X104026281Y-71850699D01*
X104201800Y-71815787D01*
X104367136Y-71747302D01*
X104515935Y-71647878D01*
X104642478Y-71521335D01*
X104741902Y-71372536D01*
X104810387Y-71207200D01*
X104845300Y-71031679D01*
X104845300Y-70852721D01*
X104825090Y-70751120D01*
X104825089Y-70751116D01*
X105593700Y-70751116D01*
X105593700Y-70930083D01*
X105628611Y-71105592D01*
X105628613Y-71105600D01*
X105697096Y-71270932D01*
X105697101Y-71270942D01*
X105796521Y-71419734D01*
X105796524Y-71419738D01*
X105923061Y-71546275D01*
X105923065Y-71546278D01*
X106071857Y-71645698D01*
X106071861Y-71645700D01*
X106071864Y-71645702D01*
X106237200Y-71714187D01*
X106403662Y-71747298D01*
X106412716Y-71749099D01*
X106412720Y-71749100D01*
X106412721Y-71749100D01*
X106591680Y-71749100D01*
X106591681Y-71749099D01*
X106767200Y-71714187D01*
X106932536Y-71645702D01*
X107081335Y-71546278D01*
X107207878Y-71419735D01*
X107307302Y-71270936D01*
X107375787Y-71105600D01*
X107410700Y-70930079D01*
X107410700Y-70751121D01*
X107375787Y-70575600D01*
X107307302Y-70410264D01*
X107307300Y-70410261D01*
X107307298Y-70410257D01*
X107207878Y-70261465D01*
X107207875Y-70261461D01*
X107081338Y-70134924D01*
X107081334Y-70134921D01*
X106932542Y-70035501D01*
X106932532Y-70035496D01*
X106767200Y-69967013D01*
X106767192Y-69967011D01*
X106591683Y-69932100D01*
X106591679Y-69932100D01*
X106412721Y-69932100D01*
X106412716Y-69932100D01*
X106237207Y-69967011D01*
X106237199Y-69967013D01*
X106071867Y-70035496D01*
X106071857Y-70035501D01*
X105923065Y-70134921D01*
X105923061Y-70134924D01*
X105796524Y-70261461D01*
X105796521Y-70261465D01*
X105697101Y-70410257D01*
X105697096Y-70410267D01*
X105628613Y-70575599D01*
X105628611Y-70575607D01*
X105593700Y-70751116D01*
X104825089Y-70751116D01*
X104816528Y-70708075D01*
X104810387Y-70677200D01*
X104741902Y-70511864D01*
X104741900Y-70511861D01*
X104741898Y-70511857D01*
X104653929Y-70380203D01*
X104633051Y-70313526D01*
X104651535Y-70246145D01*
X104662745Y-70230775D01*
X104663643Y-70229722D01*
X104663654Y-70229712D01*
X104770838Y-70082186D01*
X104853624Y-69919710D01*
X104909974Y-69746283D01*
X104938500Y-69566181D01*
X104938500Y-68924500D01*
X104958185Y-68857461D01*
X105010989Y-68811706D01*
X105062500Y-68800500D01*
X105172472Y-68800500D01*
X105172475Y-68800500D01*
X105312485Y-68762984D01*
X105438015Y-68690509D01*
X105540509Y-68588015D01*
X105612984Y-68462485D01*
X105650500Y-68322475D01*
X105650500Y-68177525D01*
X105612984Y-68037515D01*
X105540509Y-67911985D01*
X105438015Y-67809491D01*
X105438013Y-67809490D01*
X105438011Y-67809488D01*
X105312488Y-67737017D01*
X105312489Y-67737017D01*
X105296736Y-67732796D01*
X105172475Y-67699500D01*
X105027525Y-67699500D01*
X104887515Y-67737016D01*
X104887514Y-67737016D01*
X104887512Y-67737017D01*
X104835060Y-67767300D01*
X104767160Y-67783771D01*
X104701133Y-67760919D01*
X104672742Y-67732796D01*
X104663657Y-67720291D01*
X104534714Y-67591348D01*
X104534712Y-67591346D01*
X104387186Y-67484162D01*
X104224714Y-67401377D01*
X104051283Y-67345025D01*
X103871181Y-67316500D01*
X103871176Y-67316500D01*
X103688824Y-67316500D01*
X103688819Y-67316500D01*
X103508716Y-67345025D01*
X103335285Y-67401377D01*
X103172813Y-67484162D01*
X103088644Y-67545314D01*
X103025288Y-67591346D01*
X103025286Y-67591348D01*
X103025285Y-67591348D01*
X102896348Y-67720285D01*
X102896348Y-67720286D01*
X102896346Y-67720288D01*
X102866826Y-67760919D01*
X102789162Y-67867813D01*
X102706377Y-68030285D01*
X102650025Y-68203716D01*
X102621500Y-68383818D01*
X101675500Y-68383818D01*
X101675500Y-63699500D01*
X101695185Y-63632461D01*
X101747989Y-63586706D01*
X101799500Y-63575500D01*
X102776341Y-63575500D01*
X102843380Y-63595185D01*
G37*
%TD.AperFunction*%
%TD*%
M02*
