%TF.GenerationSoftware,KiCad,Pcbnew,9.0.2-9.0.2-0~ubuntu22.04.1*%
%TF.CreationDate,2025-06-23T10:09:53-04:00*%
%TF.ProjectId,mm2,6d6d322e-6b69-4636-9164-5f7063625858,rev?*%
%TF.SameCoordinates,Original*%
%TF.FileFunction,Legend,Bot*%
%TF.FilePolarity,Positive*%
%FSLAX46Y46*%
G04 Gerber Fmt 4.6, Leading zero omitted, Abs format (unit mm)*
G04 Created by KiCad (PCBNEW 9.0.2-9.0.2-0~ubuntu22.04.1) date 2025-06-23 10:09:53*
%MOMM*%
%LPD*%
G01*
G04 APERTURE LIST*
%ADD10C,0.120000*%
%ADD11C,0.150000*%
G04 APERTURE END LIST*
D10*
X102158800Y-75272900D02*
X102158800Y-76720700D01*
X102184200Y-72263000D02*
X102184200Y-73710800D01*
D11*
X124661904Y-64054819D02*
X124661904Y-64864342D01*
X124661904Y-64864342D02*
X124614285Y-64959580D01*
X124614285Y-64959580D02*
X124566666Y-65007200D01*
X124566666Y-65007200D02*
X124471428Y-65054819D01*
X124471428Y-65054819D02*
X124280952Y-65054819D01*
X124280952Y-65054819D02*
X124185714Y-65007200D01*
X124185714Y-65007200D02*
X124138095Y-64959580D01*
X124138095Y-64959580D02*
X124090476Y-64864342D01*
X124090476Y-64864342D02*
X124090476Y-64054819D01*
X123709523Y-64054819D02*
X123042857Y-64054819D01*
X123042857Y-64054819D02*
X123471428Y-65054819D01*
X101525294Y-76426219D02*
X101525294Y-75426219D01*
X101525294Y-75426219D02*
X101287199Y-75426219D01*
X101287199Y-75426219D02*
X101144342Y-75473838D01*
X101144342Y-75473838D02*
X101049104Y-75569076D01*
X101049104Y-75569076D02*
X101001485Y-75664314D01*
X101001485Y-75664314D02*
X100953866Y-75854790D01*
X100953866Y-75854790D02*
X100953866Y-75997647D01*
X100953866Y-75997647D02*
X101001485Y-76188123D01*
X101001485Y-76188123D02*
X101049104Y-76283361D01*
X101049104Y-76283361D02*
X101144342Y-76378600D01*
X101144342Y-76378600D02*
X101287199Y-76426219D01*
X101287199Y-76426219D02*
X101525294Y-76426219D01*
X100001485Y-76426219D02*
X100572913Y-76426219D01*
X100287199Y-76426219D02*
X100287199Y-75426219D01*
X100287199Y-75426219D02*
X100382437Y-75569076D01*
X100382437Y-75569076D02*
X100477675Y-75664314D01*
X100477675Y-75664314D02*
X100572913Y-75711933D01*
X131761904Y-64054819D02*
X131761904Y-64864342D01*
X131761904Y-64864342D02*
X131714285Y-64959580D01*
X131714285Y-64959580D02*
X131666666Y-65007200D01*
X131666666Y-65007200D02*
X131571428Y-65054819D01*
X131571428Y-65054819D02*
X131380952Y-65054819D01*
X131380952Y-65054819D02*
X131285714Y-65007200D01*
X131285714Y-65007200D02*
X131238095Y-64959580D01*
X131238095Y-64959580D02*
X131190476Y-64864342D01*
X131190476Y-64864342D02*
X131190476Y-64054819D01*
X130571428Y-64483390D02*
X130666666Y-64435771D01*
X130666666Y-64435771D02*
X130714285Y-64388152D01*
X130714285Y-64388152D02*
X130761904Y-64292914D01*
X130761904Y-64292914D02*
X130761904Y-64245295D01*
X130761904Y-64245295D02*
X130714285Y-64150057D01*
X130714285Y-64150057D02*
X130666666Y-64102438D01*
X130666666Y-64102438D02*
X130571428Y-64054819D01*
X130571428Y-64054819D02*
X130380952Y-64054819D01*
X130380952Y-64054819D02*
X130285714Y-64102438D01*
X130285714Y-64102438D02*
X130238095Y-64150057D01*
X130238095Y-64150057D02*
X130190476Y-64245295D01*
X130190476Y-64245295D02*
X130190476Y-64292914D01*
X130190476Y-64292914D02*
X130238095Y-64388152D01*
X130238095Y-64388152D02*
X130285714Y-64435771D01*
X130285714Y-64435771D02*
X130380952Y-64483390D01*
X130380952Y-64483390D02*
X130571428Y-64483390D01*
X130571428Y-64483390D02*
X130666666Y-64531009D01*
X130666666Y-64531009D02*
X130714285Y-64578628D01*
X130714285Y-64578628D02*
X130761904Y-64673866D01*
X130761904Y-64673866D02*
X130761904Y-64864342D01*
X130761904Y-64864342D02*
X130714285Y-64959580D01*
X130714285Y-64959580D02*
X130666666Y-65007200D01*
X130666666Y-65007200D02*
X130571428Y-65054819D01*
X130571428Y-65054819D02*
X130380952Y-65054819D01*
X130380952Y-65054819D02*
X130285714Y-65007200D01*
X130285714Y-65007200D02*
X130238095Y-64959580D01*
X130238095Y-64959580D02*
X130190476Y-64864342D01*
X130190476Y-64864342D02*
X130190476Y-64673866D01*
X130190476Y-64673866D02*
X130238095Y-64578628D01*
X130238095Y-64578628D02*
X130285714Y-64531009D01*
X130285714Y-64531009D02*
X130380952Y-64483390D01*
X101550694Y-73810019D02*
X101550694Y-72810019D01*
X101550694Y-72810019D02*
X101312599Y-72810019D01*
X101312599Y-72810019D02*
X101169742Y-72857638D01*
X101169742Y-72857638D02*
X101074504Y-72952876D01*
X101074504Y-72952876D02*
X101026885Y-73048114D01*
X101026885Y-73048114D02*
X100979266Y-73238590D01*
X100979266Y-73238590D02*
X100979266Y-73381447D01*
X100979266Y-73381447D02*
X101026885Y-73571923D01*
X101026885Y-73571923D02*
X101074504Y-73667161D01*
X101074504Y-73667161D02*
X101169742Y-73762400D01*
X101169742Y-73762400D02*
X101312599Y-73810019D01*
X101312599Y-73810019D02*
X101550694Y-73810019D01*
X100598313Y-72905257D02*
X100550694Y-72857638D01*
X100550694Y-72857638D02*
X100455456Y-72810019D01*
X100455456Y-72810019D02*
X100217361Y-72810019D01*
X100217361Y-72810019D02*
X100122123Y-72857638D01*
X100122123Y-72857638D02*
X100074504Y-72905257D01*
X100074504Y-72905257D02*
X100026885Y-73000495D01*
X100026885Y-73000495D02*
X100026885Y-73095733D01*
X100026885Y-73095733D02*
X100074504Y-73238590D01*
X100074504Y-73238590D02*
X100645932Y-73810019D01*
X100645932Y-73810019D02*
X100026885Y-73810019D01*
X139061904Y-63970819D02*
X139061904Y-64780342D01*
X139061904Y-64780342D02*
X139014285Y-64875580D01*
X139014285Y-64875580D02*
X138966666Y-64923200D01*
X138966666Y-64923200D02*
X138871428Y-64970819D01*
X138871428Y-64970819D02*
X138680952Y-64970819D01*
X138680952Y-64970819D02*
X138585714Y-64923200D01*
X138585714Y-64923200D02*
X138538095Y-64875580D01*
X138538095Y-64875580D02*
X138490476Y-64780342D01*
X138490476Y-64780342D02*
X138490476Y-63970819D01*
X137966666Y-64970819D02*
X137776190Y-64970819D01*
X137776190Y-64970819D02*
X137680952Y-64923200D01*
X137680952Y-64923200D02*
X137633333Y-64875580D01*
X137633333Y-64875580D02*
X137538095Y-64732723D01*
X137538095Y-64732723D02*
X137490476Y-64542247D01*
X137490476Y-64542247D02*
X137490476Y-64161295D01*
X137490476Y-64161295D02*
X137538095Y-64066057D01*
X137538095Y-64066057D02*
X137585714Y-64018438D01*
X137585714Y-64018438D02*
X137680952Y-63970819D01*
X137680952Y-63970819D02*
X137871428Y-63970819D01*
X137871428Y-63970819D02*
X137966666Y-64018438D01*
X137966666Y-64018438D02*
X138014285Y-64066057D01*
X138014285Y-64066057D02*
X138061904Y-64161295D01*
X138061904Y-64161295D02*
X138061904Y-64399390D01*
X138061904Y-64399390D02*
X138014285Y-64494628D01*
X138014285Y-64494628D02*
X137966666Y-64542247D01*
X137966666Y-64542247D02*
X137871428Y-64589866D01*
X137871428Y-64589866D02*
X137680952Y-64589866D01*
X137680952Y-64589866D02*
X137585714Y-64542247D01*
X137585714Y-64542247D02*
X137538095Y-64494628D01*
X137538095Y-64494628D02*
X137490476Y-64399390D01*
X130682904Y-81852419D02*
X130682904Y-82661942D01*
X130682904Y-82661942D02*
X130635285Y-82757180D01*
X130635285Y-82757180D02*
X130587666Y-82804800D01*
X130587666Y-82804800D02*
X130492428Y-82852419D01*
X130492428Y-82852419D02*
X130301952Y-82852419D01*
X130301952Y-82852419D02*
X130206714Y-82804800D01*
X130206714Y-82804800D02*
X130159095Y-82757180D01*
X130159095Y-82757180D02*
X130111476Y-82661942D01*
X130111476Y-82661942D02*
X130111476Y-81852419D01*
X129206714Y-82185752D02*
X129206714Y-82852419D01*
X129444809Y-81804800D02*
X129682904Y-82519085D01*
X129682904Y-82519085D02*
X129063857Y-82519085D01*
X108435733Y-67120419D02*
X108435733Y-67834704D01*
X108435733Y-67834704D02*
X108483352Y-67977561D01*
X108483352Y-67977561D02*
X108578590Y-68072800D01*
X108578590Y-68072800D02*
X108721447Y-68120419D01*
X108721447Y-68120419D02*
X108816685Y-68120419D01*
X108007161Y-67215657D02*
X107959542Y-67168038D01*
X107959542Y-67168038D02*
X107864304Y-67120419D01*
X107864304Y-67120419D02*
X107626209Y-67120419D01*
X107626209Y-67120419D02*
X107530971Y-67168038D01*
X107530971Y-67168038D02*
X107483352Y-67215657D01*
X107483352Y-67215657D02*
X107435733Y-67310895D01*
X107435733Y-67310895D02*
X107435733Y-67406133D01*
X107435733Y-67406133D02*
X107483352Y-67548990D01*
X107483352Y-67548990D02*
X108054780Y-68120419D01*
X108054780Y-68120419D02*
X107435733Y-68120419D01*
X136761904Y-82904819D02*
X136761904Y-83714342D01*
X136761904Y-83714342D02*
X136714285Y-83809580D01*
X136714285Y-83809580D02*
X136666666Y-83857200D01*
X136666666Y-83857200D02*
X136571428Y-83904819D01*
X136571428Y-83904819D02*
X136380952Y-83904819D01*
X136380952Y-83904819D02*
X136285714Y-83857200D01*
X136285714Y-83857200D02*
X136238095Y-83809580D01*
X136238095Y-83809580D02*
X136190476Y-83714342D01*
X136190476Y-83714342D02*
X136190476Y-82904819D01*
X135238095Y-82904819D02*
X135714285Y-82904819D01*
X135714285Y-82904819D02*
X135761904Y-83381009D01*
X135761904Y-83381009D02*
X135714285Y-83333390D01*
X135714285Y-83333390D02*
X135619047Y-83285771D01*
X135619047Y-83285771D02*
X135380952Y-83285771D01*
X135380952Y-83285771D02*
X135285714Y-83333390D01*
X135285714Y-83333390D02*
X135238095Y-83381009D01*
X135238095Y-83381009D02*
X135190476Y-83476247D01*
X135190476Y-83476247D02*
X135190476Y-83714342D01*
X135190476Y-83714342D02*
X135238095Y-83809580D01*
X135238095Y-83809580D02*
X135285714Y-83857200D01*
X135285714Y-83857200D02*
X135380952Y-83904819D01*
X135380952Y-83904819D02*
X135619047Y-83904819D01*
X135619047Y-83904819D02*
X135714285Y-83857200D01*
X135714285Y-83857200D02*
X135761904Y-83809580D01*
X131470304Y-74943619D02*
X131470304Y-75753142D01*
X131470304Y-75753142D02*
X131422685Y-75848380D01*
X131422685Y-75848380D02*
X131375066Y-75896000D01*
X131375066Y-75896000D02*
X131279828Y-75943619D01*
X131279828Y-75943619D02*
X131089352Y-75943619D01*
X131089352Y-75943619D02*
X130994114Y-75896000D01*
X130994114Y-75896000D02*
X130946495Y-75848380D01*
X130946495Y-75848380D02*
X130898876Y-75753142D01*
X130898876Y-75753142D02*
X130898876Y-74943619D01*
X130517923Y-74943619D02*
X129898876Y-74943619D01*
X129898876Y-74943619D02*
X130232209Y-75324571D01*
X130232209Y-75324571D02*
X130089352Y-75324571D01*
X130089352Y-75324571D02*
X129994114Y-75372190D01*
X129994114Y-75372190D02*
X129946495Y-75419809D01*
X129946495Y-75419809D02*
X129898876Y-75515047D01*
X129898876Y-75515047D02*
X129898876Y-75753142D01*
X129898876Y-75753142D02*
X129946495Y-75848380D01*
X129946495Y-75848380D02*
X129994114Y-75896000D01*
X129994114Y-75896000D02*
X130089352Y-75943619D01*
X130089352Y-75943619D02*
X130375066Y-75943619D01*
X130375066Y-75943619D02*
X130470304Y-75896000D01*
X130470304Y-75896000D02*
X130517923Y-75848380D01*
D10*
%TO.C,R4*%
X109477500Y-82737258D02*
X109477500Y-82262742D01*
X110522500Y-82737258D02*
X110522500Y-82262742D01*
%TO.C,C12*%
X109490000Y-78359420D02*
X109490000Y-78640580D01*
X110510000Y-78359420D02*
X110510000Y-78640580D01*
%TO.C,R13*%
X136237258Y-75477500D02*
X135762742Y-75477500D01*
X136237258Y-76522500D02*
X135762742Y-76522500D01*
%TO.C,TP3*%
X121100000Y-63600000D02*
X121100000Y-65000000D01*
X121100000Y-65000000D02*
X122500000Y-65000000D01*
X122500000Y-63600000D02*
X121100000Y-63600000D01*
X122500000Y-65000000D02*
X122500000Y-63600000D01*
%TO.C,U7*%
X122000000Y-65440000D02*
X121200000Y-65440000D01*
X122000000Y-65440000D02*
X122800000Y-65440000D01*
X122000000Y-68560000D02*
X120200000Y-68560000D01*
X122000000Y-68560000D02*
X122800000Y-68560000D01*
%TO.C,R2*%
X108477500Y-73237258D02*
X108477500Y-72762742D01*
X109522500Y-73237258D02*
X109522500Y-72762742D01*
%TO.C,D1*%
X102515000Y-75265000D02*
X104800000Y-75265000D01*
X102515000Y-76735000D02*
X102515000Y-75265000D01*
X104800000Y-76735000D02*
X102515000Y-76735000D01*
%TO.C,TP4*%
X128100000Y-63600000D02*
X128100000Y-65000000D01*
X128100000Y-65000000D02*
X129500000Y-65000000D01*
X129500000Y-63600000D02*
X128100000Y-63600000D01*
X129500000Y-65000000D02*
X129500000Y-63600000D01*
%TO.C,R12*%
X117477500Y-81237258D02*
X117477500Y-80762742D01*
X118522500Y-81237258D02*
X118522500Y-80762742D01*
%TO.C,C11*%
X136140580Y-69490000D02*
X135859420Y-69490000D01*
X136140580Y-70510000D02*
X135859420Y-70510000D01*
%TO.C,U8*%
X129000000Y-65440000D02*
X128200000Y-65440000D01*
X129000000Y-65440000D02*
X129800000Y-65440000D01*
X129000000Y-68560000D02*
X127200000Y-68560000D01*
X129000000Y-68560000D02*
X129800000Y-68560000D01*
%TO.C,C9*%
X129140580Y-69490000D02*
X128859420Y-69490000D01*
X129140580Y-70510000D02*
X128859420Y-70510000D01*
%TO.C,C7*%
X122140580Y-69490000D02*
X121859420Y-69490000D01*
X122140580Y-70510000D02*
X121859420Y-70510000D01*
%TO.C,C10*%
X131990000Y-67140580D02*
X131990000Y-66859420D01*
X133010000Y-67140580D02*
X133010000Y-66859420D01*
%TO.C,D2*%
X102515000Y-72265000D02*
X104800000Y-72265000D01*
X102515000Y-73735000D02*
X102515000Y-72265000D01*
X104800000Y-73735000D02*
X102515000Y-73735000D01*
%TO.C,C8*%
X124990000Y-67140580D02*
X124990000Y-66859420D01*
X126010000Y-67140580D02*
X126010000Y-66859420D01*
%TO.C,TP5*%
X135400000Y-63600000D02*
X135400000Y-65000000D01*
X135400000Y-65000000D02*
X136800000Y-65000000D01*
X136800000Y-63600000D02*
X135400000Y-63600000D01*
X136800000Y-65000000D02*
X136800000Y-63600000D01*
%TO.C,TP2*%
X118300000Y-72300000D02*
X118300000Y-73700000D01*
X118300000Y-73700000D02*
X119700000Y-73700000D01*
X119700000Y-72300000D02*
X118300000Y-72300000D01*
X119700000Y-73700000D02*
X119700000Y-72300000D01*
%TO.C,R3*%
X106477500Y-72762742D02*
X106477500Y-73237258D01*
X107522500Y-72762742D02*
X107522500Y-73237258D01*
%TO.C,U9*%
X136000000Y-65440000D02*
X135200000Y-65440000D01*
X136000000Y-65440000D02*
X136800000Y-65440000D01*
X136000000Y-68560000D02*
X134200000Y-68560000D01*
X136000000Y-68560000D02*
X136800000Y-68560000D01*
%TO.C,C6*%
X117990000Y-67140580D02*
X117990000Y-66859420D01*
X119010000Y-67140580D02*
X119010000Y-66859420D01*
%TO.C,U4*%
X125000000Y-78765000D02*
X122800000Y-78765000D01*
X125000000Y-78765000D02*
X128600000Y-78765000D01*
X125000000Y-84235000D02*
X122800000Y-84235000D01*
X125000000Y-84235000D02*
X127200000Y-84235000D01*
%TO.C,TP1*%
X112300000Y-72300000D02*
X112300000Y-73700000D01*
X112300000Y-73700000D02*
X113700000Y-73700000D01*
X113700000Y-72300000D02*
X112300000Y-72300000D01*
X113700000Y-73700000D02*
X113700000Y-72300000D01*
%TO.C,J2*%
X103520000Y-62590000D02*
X112680000Y-62590000D01*
X103520000Y-63540000D02*
X103520000Y-62590000D01*
X103520000Y-67515000D02*
X103520000Y-66660000D01*
X112680000Y-63540000D02*
X112680000Y-62590000D01*
X112680000Y-67515000D02*
X112680000Y-66660000D01*
%TO.C,C1*%
X111490000Y-78359420D02*
X111490000Y-78640580D01*
X112510000Y-78359420D02*
X112510000Y-78640580D01*
%TO.C,R17*%
X97362742Y-81777500D02*
X97837258Y-81777500D01*
X97362742Y-82822500D02*
X97837258Y-82822500D01*
%TO.C,R9*%
X113477500Y-78262742D02*
X113477500Y-78737258D01*
X114522500Y-78262742D02*
X114522500Y-78737258D01*
%TO.C,R6*%
X114477500Y-65762742D02*
X114477500Y-66237258D01*
X115522500Y-65762742D02*
X115522500Y-66237258D01*
%TO.C,R11*%
X117477500Y-76762742D02*
X117477500Y-77237258D01*
X118522500Y-76762742D02*
X118522500Y-77237258D01*
%TO.C,C5*%
X113490000Y-82359420D02*
X113490000Y-82640580D01*
X114510000Y-82359420D02*
X114510000Y-82640580D01*
%TO.C,R1*%
X115762742Y-72477500D02*
X116237258Y-72477500D01*
X115762742Y-73522500D02*
X116237258Y-73522500D01*
%TO.C,U5*%
X136000000Y-77265000D02*
X133800000Y-77265000D01*
X136000000Y-77265000D02*
X138200000Y-77265000D01*
X136000000Y-82735000D02*
X132400000Y-82735000D01*
X136000000Y-82735000D02*
X138200000Y-82735000D01*
%TO.C,R5*%
X114477500Y-69737258D02*
X114477500Y-69262742D01*
X115522500Y-69737258D02*
X115522500Y-69262742D01*
%TO.C,C13*%
X111490000Y-82359420D02*
X111490000Y-82640580D01*
X112510000Y-82359420D02*
X112510000Y-82640580D01*
%TO.C,R14*%
X102296700Y-83291142D02*
X102296700Y-83765658D01*
X103341700Y-83291142D02*
X103341700Y-83765658D01*
%TO.C,U3*%
X125000000Y-72765000D02*
X122800000Y-72765000D01*
X125000000Y-72765000D02*
X128600000Y-72765000D01*
X125000000Y-78235000D02*
X122800000Y-78235000D01*
X125000000Y-78235000D02*
X127200000Y-78235000D01*
%TD*%
M02*
